M48
;GenerationSoftware,Autodesk,EAGLE,9.5.2*%
;CreationDate,2020-01-30T14:41:01Z*%
FMAT,2
ICI,OFF
METRIC,TZ,000.000
T6C0.350
T5C0.800
T4C0.914
T3C1.016
T2C1.300
T1C3.500
%
G90
M71
T1
X66690Y3810
X3810Y3810
X3810Y46000
X66690Y46000
T2
X13150Y7620
X49690Y7500
X40790Y7560
X33790Y7560
X37290Y7560
X62730Y11910
X62730Y22410
X62730Y15410
X62730Y18910
X30290Y7560
X53190Y7500
X56690Y7500
X46190Y7500
X19500Y7620
X23310Y7620
X9340Y7620
T3
X35241Y31681
X28739Y27159
X35241Y27159
X28739Y31681
T4
X31550Y37000
X29010Y39540
X29010Y37000
X26470Y39540
X26470Y37000
X31550Y39540
T5
X18930Y31580
X18930Y34120
X18930Y36660
X18930Y39200
X6230Y31580
X6230Y34120
X6230Y29040
X6230Y36660
X6230Y26500
X6230Y39200
X18930Y26500
X18930Y29040
T6
X55000Y9400
X53500Y15800
X50200Y15800
X51900Y15800
X47900Y17400
X45400Y18800
X45500Y17200
X45300Y21200
X45400Y23700
X45500Y26000
X45400Y28100
X47700Y28100
X53800Y25400
X56000Y26400
X55900Y24100
X55400Y27800
X59900Y24700
X62800Y24900
X67700Y24900
X65700Y28100
X68000Y28300
X65700Y31200
X68100Y31200
X61600Y30100
X58500Y30000
X58300Y32700
X55600Y30200
X53800Y32000
X51900Y29200
X41000Y31900
X41700Y36400
X47700Y38300
X49800Y41200
X46700Y44900
X51800Y44700
X51800Y46900
X55100Y46800
X55200Y44200
X58300Y47100
X57700Y44800
X59700Y43500
X61300Y43500
X60900Y46900
X60900Y45500
X63000Y46800
X63200Y45200
X48900Y47400
X45100Y47600
X43100Y44900
X42100Y47600
X40000Y45000
X37700Y47700
X35700Y44900
X33300Y47600
X32200Y44900
X30800Y47400
X28100Y47400
X24800Y47500
X22600Y47400
X18600Y47500
X12800Y47600
X9000Y47700
X8900Y44600
X13000Y44700
X18800Y44600
X22700Y44600
X26200Y44800
X29500Y43900
X62800Y2100
X37600Y42500
X41500Y43200
X44700Y43100
X9000Y38500
X13800Y38600
X9000Y35500
X13700Y35600
X8600Y30600
X13900Y30500
X8700Y27900
X16200Y27000
X22100Y26600
X21800Y30600
X26100Y26600
X31000Y25100
X32200Y23300
X32100Y20800
X29300Y18800
X19300Y19900
X20500Y18300
X21900Y20200
X22600Y18100
X15200Y21500
X15000Y23400
X8100Y24000
X8100Y21900
X10300Y25500
X12900Y25500
X3200Y22800
X5800Y20800
X3000Y17600
X6200Y16300
X3800Y14700
X6600Y11700
X14600Y15600
X15100Y18300
X16300Y8500
X4000Y9400
X30000Y9300
X37200Y9600
X33600Y17500
X33800Y12500
X42500Y14600
X8194Y13970
X20770Y13970
X38600Y28700
X51700Y36400
X35500Y19100
X44400Y32100
X47600Y34400
X44800Y15200
X48000Y16100
X50395Y17300
X54300Y17300
X10200Y2300
X52800Y10000
X51100Y8090
X40600Y12300
X40600Y13600
X42400Y16241
X40600Y11000
X57000Y35308
X53042Y32595
X55800Y33300
X55800Y35600
X48200Y35600
X44400Y16400
X10200Y3700
X13400Y3600
X13500Y1800
X17300Y3600
X17300Y1400
X20600Y3600
X20600Y1500
X24800Y3800
X24800Y1400
X28800Y3900
X28900Y1800
X31900Y3700
X31900Y1800
X36200Y4000
X32600Y42300
X36100Y2000
X39200Y4000
X39300Y1900
X43100Y4100
X43200Y2000
X47400Y4100
X47400Y1800
X53400Y4100
X53600Y1700
X59200Y4800
X59400Y2000
X62800Y6400
X59200Y13600
X60800Y15200
X57300Y15100
X59500Y17400
X64400Y17300
X64400Y13600
X64200Y20700
X56100Y17300
X58400Y19700
X60100Y22100
X67900Y21000
X67500Y15300
X66700Y8700
X59800Y9500
X46600Y9090
M30