<svg xmlns="http://www.w3.org/2000/svg" width="612" height="612" viewBox="0 0 612 612"><g fill="#A09834"><path d="M320.875 434.177c.093.093.432.28.979.553-.192-.694-1.944-1.517-.979-.553z"/><path d="M321.854 427.812c.204.735-1.348 1.32-9.79-.552L126.39 460.125s-16.935 1.726 1.695 16.811c18.635 15.085 86.632 50.575 211.477 24.993 104.558-21.421-6.495-68.525-17.708-74.117z"/></g><path fill="#A09834" d="M380.672 492.553s88.446-20.25 117.003-96.124c28.556-75.877-59.44-7.118-63.219-3.345-3.781 3.778-29.888 16.996-35.417 19.661"/><path fill="#CCBF46" d="M475.985 420.633c2.326-2.711 3.922-4.809 4.901-6.389 7.827-10.975 12.512-21.32 12.512-21.32l-3.77-42.611-309.982 102.873c-23.356-5.264-50.654-10.42-61.631-8.65l-7.425-3.488s-.222.521-.378 1.471c2.154 4.531 28.538 54.854 136.959 54.854h.746c4.528.146 9.008.213 13.415.191.183.002.382.007.56.012 1.427-.007 2.702-.032 3.852-.071 20.258-.363 39.054-2.367 55.536-5.04l.117-.01.003-.01c39.968-6.492 66.259-16.84 66.259-16.84a66.57 66.57 0 0 0 5.545-2.196l-.05.211s43.524-10.93 77.595-47.19a.736.736 0 0 1 .071-.077 90.162 90.162 0 0 0 5.165-5.72z"/><path fill="#D3C845" d="M499.844 296.567s13.107-40.433 65.981-55.541c0 0-73.078-4.65-91.297-17.534 0 0 45.451-46.708 135.284-54.282 0 0-82.907-11.744-172.395 41.607-23.101 13.773-36.117 19.105-36.117 19.105s52.117 5.776 76.553 17.773c0 0-5.775 14.66-45.762 15.995-39.987 1.331 67.753 32.877 67.753 32.877z"/><path fill="#E7E755" d="M565.825 241.026s-78.198-9.771-96.417-22.655c0 0 43.339-44.564 140.404-49.161 0 0-82.907-11.744-172.395 41.607-23.101 13.773-36.117 19.105-36.117 19.105s52.117 5.776 76.553 17.773c0 0-5.775 14.66-45.762 15.995-21.045.697-1.181 9.767 22.369 18.205 42.396-37.314 106.595-41.497 111.365-40.869z"/><path fill="#E7E755" d="M82.193 350.771s-31.987 28.881-50.206 44.533c-18.214 15.656-14.66 29.431-12.438 53.424 2.219 23.989-2.222 39.541-19.549 48.87 0 0 33.766 1.779 31.987 31.102 0 0 31.546-31.544 59.093-19.993 0 0-14.663-16.886-11.995-27.104 2.667-10.22 12.874-25.128 21.327-32.874 5.333-4.888 7.196 3.113 22.302 9.334 15.108 6.22 16.625 8.197 31.149 13.203l23.958 4.28s32.525 29.366 142.621 4.607c0 0 22.54-2.976 52.006-12.39 4.439-1.421 5.879-5.309 10.73-6.546 57.094-14.587 80.856-33.692 105.061-70.556 47.627-72.53-20.176-100.252-20.176-100.252s-155.172-103.852-351.385 32.772c-11.448 7.969-22.952 17.892-34.485 27.59z"/><path fill="#E7E755" d="M116.015 324.306L31.987 529.822s31.544-31.544 59.093-19.992c0 0-15.325-16.887-12.658-27.104 2.667-10.222 12.874-25.13 21.327-32.877 5.333-4.886 7.196 3.117 22.302 9.336 15.108 6.219 16.623 8.199 31.152 13.202 0 .001 13.318-111.972-37.188-148.081zM558.273 402.755c-6.01-8.16-7.836-11.342-7.836-11.342s2.946-3.077 2.946-9.096c0-3.501.926-9.152 2.251-15.315 4.554-23.824-4.155-49.2-36.479-65.3a264.941 264.941 0 0 0-9.56-4.229 135.774 135.774 0 0 1-4.185-1.696c-12.475-4.935-24.423-8.346-30.416-7.208l8.422 75.531s-4.107 22.387 11.761 41.319c14.533 17.33.207 37.502.207 37.502s22.647-10.791 55.436 11.418c0 0 8.782-32.479 38.107-32.925.002.001-21.582-6.335-30.654-18.659zM299.682 457.402s2.845 4.017 8.445 9.777c6.848 7.045 17.325 9.043 15.104 23.992-2.31 15.537-5.33 36.434-16.882 44.43 0 0 40.876-2.221 57.755 25.325 0 0 17.773-27.103 56.873-27.103 0 0-29.324-27.992-29.324-40.876 0-12.882 11.013-27.103 11.013-39.099 0-11.994-39.448-59.979-56.329-57.313"/><path fill="#CCBF46" d="M480.012 307.597s6.695 30.938-32.045 57.001c-37.471 25.215-85.455 4.965-146.2-4.051l92.741-43.596.963-3.865"/><path fill="#A09834" d="M410.464 208.805c-.08-.131-.146-.214-.146-.214l.146.214zM317.351 357.57c.704.233 1.371.433 2.026.621-.163-.611-.631-.621-2.026-.621zM309.623 355.457c3.174.934 6.386 1.726 9.605 2.001-3.811-1.869-5.941-1.996-9.605-2.001z"/><path fill="#8D8431" d="M412.359 349.646c.765-.178 1.527-.368 2.295-.536-.767.167-1.53.358-2.295.536-17.919 4.129-35.924 9.868-55.758 12.007.312.049.624.083.94.148-.316-.065-.628-.1-.94-.148-.396.043-.779.109-1.177.148.397-.039.78-.105 1.177-.148-9.681-1.511-17.663 3.646-27.288-1.228-3.332-.768-6.336-1.203-9.937-2.233.083.313.088.773.088 1.492 0-.719-.005-1.179-.088-1.492a52.199 52.199 0 0 1-2.026-.621h2.114c-.083-.042-.153-.071-.236-.112-3.22-.275-6.432-1.067-9.605-2.001l-.732-.002.732.002c-10.974-3.239-21.515-8.158-30.418.878 8.04 5.169 20.719 11.857 38.029 16.569 31.091 8.46 72.563 6.874 117.074-19.028a238.329 238.329 0 0 0 13.769-8.625c-11.577-4.147-24.466-4.253-35.718 4.394z"/><path fill="#A09834" d="M488.975 288.348c-3.095-9.546-13.342-6.445-13.342-6.445l7.785-8.443c7.787-8.443 7.763-15.106-2.459-15.106-10.216 0-22.681 1.688-39.797-13.773-16.104-14.545-29.207-33.578-30.698-35.775.673 1.114 2.406 5.956-24.837-1.99-30.465-8.884-51.288-29.768-60.615-47.541-9.33-17.773-17.327-11.995-23.549 0-6.221 11.995-12.44 23.546-54.203 46.208-41.768 22.658-75.085 5.776-81.755-2.222-6.662-8-15.549-9.775-16.438 5.331-.889 15.107-2.665 24.881-10.662 48.43-8 23.549-33.322 37.765-43.542 35.987-10.221-1.776-19.549-2.663-16.887 3.559 2.668 6.224 13.328 26.209 13.328 26.209s-14.229 3.556-14.229 14.219c0 24.882 38.939 27.246 38.939 27.246 47.809-29.175 152.833-15.622 152.833-15.622s3.503 3.307 10.357 7.716c8.904-9.036 19.444-4.117 30.418-.878 3.664.005 5.794.132 9.605 2.001.083.041.153.07.236.112h-2.114c1.396 0 1.863.01 2.026.621 3.601 1.03 6.604 1.466 9.937 2.233-.46-.234-.921-.458-1.386-.741.465.283.926.507 1.386.741 9.625 4.874 17.607-.283 27.288 1.228 19.834-2.139 37.839-7.878 55.758-12.007 11.252-8.646 24.141-8.54 35.717-4.395 38.651-26.15 43.691-48.289 40.9-56.903z"/><path fill="#8D8431" d="M139.142 316.562l9.388 24.481s-7.008 1.322-7.802 1.322c-.792 0-10.178-6.743-12.029-10.975-1.851-4.228-7.866-16.46-8.594-17.186"/><path fill="#A09834" d="M348.324 220.169s29.2 4.796 52.977-13.761c23.774-18.555 28.223-14.47 27.068 13.761-1.162 28.226 14.786 47.366 14.786 47.366"/><path fill="#CCBF46" d="M82.193 350.771s27.666 19.493 15.993 45.658c-3.34 7.483-7.598 13.276-12.112 18.426h.002c-2.682 2.945-4.556 5.623-5.866 8.134-22.9 37.809-17.232 56.218-1.291 72.189 3.308 3.57 7.442 7.69 11.374 14.361.265.1.526.181.787.291-8.034-12.826-13.891-24.943-7.416-36.616 4.421-8.141 11.269-16.662 17.276-22.172 5.332-4.888 13.096 6.075 18.579 10.674 12.514 10.504 19.768 12.82 34.294 17.83.001 0 4.088-142.685-71.62-128.775z"/><path fill="#E7E755" d="M136.628 341.443s23.878-24.881 62.201-24.881 54.805 24.881 54.805 24.881-45.473 38.654-89.46 34.655c-43.986-4-27.546-34.655-27.546-34.655z"/><path fill="#CCBF46" d="M253.333 448.174c-1.124-1.461-2.205-2.939-3.17-4.496-15.145 5.926-41.572 12.788-41.572 12.788s-39.731 18.556-39.032 18.729c.697.173 21.071 7.045 21.071 7.045 8.543-2.608 20.124-6.504 29.079-8.186 27.965-5.251 40.158-15.024 45.173-24.115a796.74 796.74 0 0 1-9.596-2.573c.397.974-1.194 1.79-1.953.808z"/><path fill="#E7E755" d="M266.594 429.181l-153.517.675c-5.91 19.994 4.991 19.554 17.985 27.376 14.957 9.008 23.729 29.709 23.729 29.709s27.714-21.495 64.917-26.152c52.74-6.605 46.886-31.608 46.886-31.608z"/><path fill="#8D8431" d="M476.349 280.804s-6.078 6.526-13.854 25.212c-3.806 4.816-8.694 10.164-14.963 15.861-25.073 22.794-66.86 35.14-66.86 35.14s52.162-4.176 84.071-40.454c25.283-28.746 24.899-35.759 11.606-35.759zM428.369 221.166c-1.421 30.213 22.974 58.208 22.974 58.208s-9.089-18.175-7.793-32.723c0 0-7.393-4.483-15.181-25.485zM396.627 209.743c.34.083-.582.375-.876.556-22.57 14.078-47.561 9.971-47.561 9.971s21.499-1.559 36.415-13.756c0-.001 6.111 1.728 12.022 3.229z"/><path fill="#A09834" d="M210.346 249.521s20.272-12.716 22.27-37.393c2.037-25.044 6.48-26.891 24.153-10.231 16.37 15.427 44.998 15.9 44.998 15.9"/><g fill="#8D8431"><path d="M255.622 200.823c16.367 15.427 46.145 16.974 46.145 16.974s-27.03-7.842-32.426-25.322l-6.813 4.282-6.906 4.066zM210.346 249.521s20.272-12.716 22.27-37.393c0 0-5.585 2.003-12.977 3.369.001 0 4.13 10.928-9.293 34.024z"/></g><path fill="#CCBF46" d="M186.374 488.826c0 .536 2.86 1.822 5.679 2.958 2.487-.191 4.974-.341 7.466-.446 4.085-4.582 14.607-14.402 34.056-20.608l-25.256-.412-4.002.412s-26.633 6.664-28.784 8.818c-2.153 2.148 10.841 8.221 10.841 9.278zM98.543 371.168c-4.964-12.717-21.022-16.034-21.022-16.034l4.672-4.363 16.76 3.359s5.025 5.904 5.995 8.638c.97 2.733 1.764 5.113 1.764 5.113"/><path fill="#E7E755" d="M98.186 396.429c-12.1 23.808-33.232 43.104-33.232 69.151 0 26.043-5.445-54.986-3.544-56.883 1.897-1.898 18.109-6.593 20.489-12.269 2.38-5.676 3.306-8.189 3.306-8.189"/><path fill="#CCBF46" d="M89.801 508.212l-3.077-4.757-.207-.303c-.236-.942-.587-2.212-.587-2.212l-10.575-16.723-2.438 4.109c9.637 10.918 11.505 15.585 11.868 16.97-2.787-.695-25.62-5.201-52.798 24.525 0 0 30.503-29.198 59.093-19.992l-1.279-1.617z"/><path fill="#CCBF46" d="M47.256 516.07c17.722-12.946 34.511-12.55 34.511-12.55s.2-3.203-6.175-12.085c-6.373-8.879 3.155-1.854 3.155-1.854l7.771 13.571-.653 2.747c-.794.795-1.983 1.119-1.983 1.119s-6.211-.987-7.932-.987c-1.717 0-3.106-.46-3.966.397-.86.86-3.966 1.379-5.817 1.379-1.852 0-3.041-.056-4.098 1.001-1.058 1.057-2.117 1.021-2.117 1.021"/><path fill="#A09834" d="M462.495 306.016c14.82-20.101 26.43-34.451 26.43-43.357 0 0-15.31 13.914-16.454 15.064-1.146 1.145-2.733 4.67-6.171 8.107-3.437 3.435-5.461 6.872-6.169 7.579"/><path fill="#A09834" d="M487.764 260.297c4.227 5.854-18.74 75.017-107.092 96.719 0 0 38.533-44.564 40.306-46.335 1.773-1.771 24.879-6.188 32.806-14.114 7.93-7.925 12.895-10.504 15.791-14.675s5.422-8.704 5.422-11.754v-5.639l12.767-4.202zM78.697 298.163c-3.542-8.411-2.955-10.265 8.887-7.754 11.839 2.517 20.886-.061 24.84-2.592 3.951-2.531 2.92 5.503 2.523 5.9-.395.397-10.838 5.021-11.5 5.684-.66.663-8.326 1.454-8.326 1.454"/><path fill="#D3C845" d="M556.59 359.786s11.418-52.191-69.755-70.697l-4.494 9.968s70.763 7.156 74.249 60.729z"/><path fill="#CCBF46" d="M396.625 474.369c-9.734 22.276-36.297 24.392-36.297 24.392s9.023.709 19.776-1.765c10.754-2.467 15.115 20.066 40.873 36.828 0 0-27.824-27.925-27.824-39.821 0-16.572 13.394-22.564 13.394-22.564"/><path fill="#8D8431" d="M445.974 325.774c-70.985 48.109-134.962 36.299-151.244 20.013 0 0 16.013 17.28 51.441 17.28 43.892 0 81.075-15.193 100.603-30.438"/><path fill="#8D8431" d="M396.747 356.252c27.819-8.466 49.867-11.568 26.088 3.534 0 0 35.53-15.262 55.274-39.407 19.741-24.153 11.91-37.67 4.17-38.776 0 0-.998 9.6-5.095 13.7-4.101 4.097-21.152 23.607-21.152 23.607l-9.259 10.896s-23.659 12.835-28.287 14.616c-4.627 1.775-17.186 6.287-17.186 6.287"/><path fill="#8D8431" d="M482.279 281.603c-17.919 31.283-57.698 67.757-117.792 77.019 0 0 53.86-7.398 82.286-22.732 28.428-15.338 27.755-22.738 27.755-22.738s8.867-10.029 8.867-11.637c0-1.605 1.927-2.38 1.927-2.38"/><path fill="#CCBF46" d="M274.245 418.123s2.916 22.73-27.317 36l10.068 5.079c23.193-16.82 17.249-41.079 17.249-41.079zM391.928 482.239c11.089-16.794 11.044-33.022 8.995-41.901-2.049-8.877 6.854 0 6.854 0s2.326-16.845 8.962 3.34c6.641 20.182-31.712 41.938-20.732 58.956 10.976 17.018-5.353-5.06-5.353-5.06l-3.5-7.011M490.543 398.911s-10.646-15.855-7.309-33.49c0 0-9.161 16.207-2.781 42.384M262.477 489.245c28.258-1.941 47.322-6.772 46.677-19.834-.641-13.06 4.496 2.735 4.496 3.969 0 1.232 1.812 10.321-.73 12.869-2.542 2.544-2.442 4.054-4.911 4.054-2.467 0-3.751 1.352-3.751 1.352"/><path fill="#CCBF46" d="M410.157 447.202s36.472-11.354 56.581-31.466c11.152-11.146 11.525-29.125 11.525-29.125s1.34 8.18 2.189 9.035c.854.851 1.888 11.102 1.888 12.158 0 1.06-2.96 5.338-4.146 6.526-1.188 1.187-3.573 3.405-9.427 11.632-5.856 8.227-34.312 21.239-34.312 21.239s-7.906 1.004-9.549 2.647c-1.645 1.643-7.963 2.729-9.374 2.729M364.104 560.927s16.134-25.09 56.873-27.103l-4.806-4.093-9.32-9.951-6.378-6.181s-6.132-6.045-1.149.267c4.984 6.312 17.113 18.54 17.113 18.54s-35.544-1.213-52.333 24.701"/><path fill="#D3C845" d="M530.357 316.207c31.039 23.911 21.431 71.858-3.861 92.786 0 0 20.095-9.12 26.24-20.16 6.148-11.037.921-7.695 2.908-19.298 3.769-22.015 2.648-42.03-20.852-59.453"/><path fill="#D3C845" d="M550.731 387.713s5.532 22.106 38.197 33.702l-9.465-1.094s-22.915-4.585-35.782-26.44"/><path fill="#D3C845" d="M588.929 421.415s-25.508 1.196-38.107 32.925l-1.146-3.778s7.951-24.967 30.759-30.967"/><path fill="#8D8431" d="M166.255 204.077c22.862 27.636 57.76 24.197 57.76 24.197l8.602-16.146c-.001 0-34.777 14.297-66.362-8.051M325.521 160.217s24.525 42.625 71.105 49.526l-17.668 5.048-5.288 1.454c.001 0-25.439-14.36-48.149-56.028zM84.551 309.904l5.59 12.499c-24.764 9.521-7.949 28.367-7.949 28.367 22.192-3.717 35.045 6.952 35.045 6.952l27.368-7.41c-15.502 0-46.707-16.54-60.054-40.408zM143.637 311.429s6.007 9.299 20.258 12.319c0 0-14.275 6.768-23.347 14.148-9.072 7.376 0 0 0 0l-4.032-12.453s-1.264-4.45-1.264-5.33M268.964 355.853s20.781-6.823 36.099-2.556l1.408-.078s-15.909-7.814-25.882-22.76c0 0 28.302-4.443 40.287-25.066 0 0-26.262 16.216-58.874 12.338l-6.17 10.577"/><path fill="#8D8431" d="M342.735 363.067l-2.026-3.098c-22.652 0-43.75-12.753-43.75-12.753l-10.45-2.794s1.625 1.763 4.999 4.207c-1.581-.434-3.235-.756-4.999-.756-3.983 0-13.751.355-14.105.355-.355 0-9.188 16.512 1.386 10.694 10.578-5.816 19.634-7.027 32.205-2.438v-.006c8.922 3.593 21.058 6.589 36.74 6.589z"/><path fill="#8D8431" d="M300.556 354.819c-14.404-3.333-12.923 8.433 16.677 18.085 0 0-27.383-6.288-39.758-18.663-12.373-12.377 14.757-5.266 14.757-5.266l6.214 1.588"/><path fill="#CCBF46" d="M266.44 346.213s14.455 10.999 20.019 14.776c0 0-26.616-2.822-62.311 19.849-36.34 23.079-3.041-20.291-3.041-20.291l38.075-22.012"/><path fill="#CCBF46" d="M220.183 400.404s34.114-28.688 58.961-29.351c0 0-17.581-10.084-39.792-5.577-16.261 3.303-24.635 2.699-24.635 2.699"/><path fill="#E7E755" d="M323.231 266.797c-39.542 36.435-87.448 47.544-87.448 47.544 2.746 11.107 13.001 23.1 13.001 23.1s-65.507 28.437-81.504 25.769c-15.993-2.665-37.319-42.65-37.319-42.65 12.44 0 27.546-8.439 27.546-8.439-24.879-13.776-50.204-67.539-50.204-67.539 4.887 40.878 19.992 59.984 19.992 59.984-11.554 5.332-25.772 4.44-25.772 4.44 15.551 27.101 24.438 39.098 24.438 39.098l-15.993-3.107 8.887 15.552c-8.446 7.996-8.446 29.767-8.887 44.431-.445 14.662-8.445 19.991-8.445 19.991s11.554 4.887 20.884 8.887c9.334 4 15.108 15.994 20.884 15.994s13.773-7.554 24.879-9.772c11.108-2.222 68.425-1.778 76.863-2.222 8.443-.443 0-8 0-8l-2.665-44.873 14.221-14.662-20.806 2.666c11.147-24.055 45.685-30.213 45.685-30.213-8.887-6.668-14.662-19.552-14.662-19.552 34.656-13.331 56.425-56.427 56.425-56.427z"/><path fill="#8D8431" d="M196.496 416.613c-2.485-1.412-3.077-5.02-1.328-8.053 1.754-3.036 5.188-4.349 7.673-2.938 2.482 1.415 3.075 5.022 1.323 8.059-1.747 3.035-5.182 4.347-7.668 2.932"/><path fill="#FFF" d="M202.108 411.614a1.69 1.69 0 0 1-1.698 1.686 1.689 1.689 0 0 1-1.693-1.686c0-.925.76-1.681 1.693-1.681a1.692 1.692 0 0 1 1.698 1.681z"/><path fill="#8D8431" d="M127.678 414.436c-2.594 1.235-5.919-.336-7.425-3.505-1.508-3.173-.628-6.743 1.964-7.979 2.594-1.229 5.922.342 7.427 3.516 1.51 3.164.628 6.735-1.966 7.968"/><ellipse fill="#FFF" cx="126.388" cy="408.429" rx="1.697" ry="1.681"/><path fill="#CCBF46" d="M177.904 438.822c-2.27.19-4.146.417-5.471.696-13.135 2.758-23.366 10.331-29.142 10.331s-11.549-11.994-20.884-15.994c-1.566-.673-5.413-2.309-9.386-4l-1.793-.76s-8.496 9.544-3.593 12.465c0 0 6.402-6.027 14.479-.936 9.742 6.134 16.397 16.126 23.334 16.126 6.94 0 13.937-8.082 28.141-11.047 1.822-.38 3.583-.691 5.3-.97 25.997-3.786 31.858 2.086 43.541 1.276 14.144-.974 17.715-16.522 17.715-16.522-13.881 17.715-19.299 4.233-62.241 9.335zM401.851 459.999c3.681-27.074-18.673-66.915-18.673-66.915s32.268 35.746 35.045 56.766c2.777 21.021-8.329 13.061-8.329 13.061M308.905 492.424c5.008-2.399 8.81 1.272 14.177-.255 1.495-5.571.383-13.577-1.686-16.81-6.689-10.442-10.127-23.663-6.295-33.181 0 0-10.046 9.255-5.948 27.232 2.026 8.887-2.246 16.478-7.084 21.886 2.28.368 4.557.754 6.836 1.128z"/></svg>
