G04 EAGLE Gerber RS-274X export*
G75*
%MOMM*%
%FSLAX34Y34*%
%LPD*%
%IN*%
%IPPOS*%
%AMOC8*
5,1,8,0,0,1.08239X$1,22.5*%
G01*
%ADD10C,0.254000*%


D10*
X0Y29915D02*
X118Y27304D01*
X463Y24714D01*
X1032Y22163D01*
X1821Y19672D01*
X2825Y17258D01*
X4035Y14942D01*
X5442Y12740D01*
X7036Y10669D01*
X8804Y8744D01*
X10734Y6981D01*
X12809Y5393D01*
X15015Y3992D01*
X17335Y2789D01*
X19751Y1792D01*
X22245Y1010D01*
X24797Y448D01*
X27389Y110D01*
X29915Y0D01*
X675060Y0D01*
X677675Y114D01*
X680270Y456D01*
X682825Y1022D01*
X685321Y1809D01*
X687739Y2811D01*
X690060Y4019D01*
X692267Y5425D01*
X694344Y7019D01*
X696273Y8787D01*
X698042Y10716D01*
X699635Y12793D01*
X701041Y15000D01*
X702249Y17321D01*
X703251Y19739D01*
X704038Y22235D01*
X704604Y24791D01*
X704946Y27385D01*
X705060Y29935D01*
X705940Y467941D01*
X705831Y470556D01*
X705495Y473151D01*
X704933Y475707D01*
X704151Y478205D01*
X703154Y480625D01*
X701951Y482949D01*
X700549Y485159D01*
X698960Y487238D01*
X697195Y489171D01*
X695269Y490943D01*
X693196Y492540D01*
X690992Y493951D01*
X688673Y495164D01*
X686257Y496170D01*
X683763Y496962D01*
X681209Y497534D01*
X678615Y497881D01*
X676000Y498000D01*
X675940Y498000D01*
X30000Y498000D01*
X27385Y497886D01*
X24791Y497544D01*
X22235Y496978D01*
X19739Y496191D01*
X17321Y495189D01*
X15000Y493981D01*
X12793Y492575D01*
X10716Y490981D01*
X8787Y489213D01*
X7019Y487284D01*
X5425Y485207D01*
X4019Y483000D01*
X2811Y480679D01*
X1809Y478261D01*
X1022Y475765D01*
X456Y473209D01*
X114Y470615D01*
X0Y468000D01*
X0Y29915D01*
X55600Y37527D02*
X55525Y36384D01*
X55376Y35248D01*
X55152Y34124D01*
X54855Y33017D01*
X54487Y31932D01*
X54049Y30874D01*
X53542Y29846D01*
X52969Y28854D01*
X52332Y27901D01*
X51635Y26992D01*
X50879Y26131D01*
X50069Y25321D01*
X49208Y24565D01*
X48299Y23868D01*
X47346Y23231D01*
X46354Y22658D01*
X45326Y22151D01*
X44268Y21713D01*
X43183Y21345D01*
X42076Y21048D01*
X40952Y20825D01*
X39816Y20675D01*
X38673Y20600D01*
X37527Y20600D01*
X36384Y20675D01*
X35248Y20825D01*
X34124Y21048D01*
X33017Y21345D01*
X31932Y21713D01*
X30874Y22151D01*
X29846Y22658D01*
X28854Y23231D01*
X27901Y23868D01*
X26992Y24565D01*
X26131Y25321D01*
X25321Y26131D01*
X24565Y26992D01*
X23868Y27901D01*
X23231Y28854D01*
X22658Y29846D01*
X22151Y30874D01*
X21713Y31932D01*
X21345Y33017D01*
X21048Y34124D01*
X20825Y35248D01*
X20675Y36384D01*
X20600Y37527D01*
X20600Y38673D01*
X20675Y39816D01*
X20825Y40952D01*
X21048Y42076D01*
X21345Y43183D01*
X21713Y44268D01*
X22151Y45326D01*
X22658Y46354D01*
X23231Y47346D01*
X23868Y48299D01*
X24565Y49208D01*
X25321Y50069D01*
X26131Y50879D01*
X26992Y51635D01*
X27901Y52332D01*
X28854Y52969D01*
X29846Y53542D01*
X30874Y54049D01*
X31932Y54487D01*
X33017Y54855D01*
X34124Y55152D01*
X35248Y55376D01*
X36384Y55525D01*
X37527Y55600D01*
X38673Y55600D01*
X39816Y55525D01*
X40952Y55376D01*
X42076Y55152D01*
X43183Y54855D01*
X44268Y54487D01*
X45326Y54049D01*
X46354Y53542D01*
X47346Y52969D01*
X48299Y52332D01*
X49208Y51635D01*
X50069Y50879D01*
X50879Y50069D01*
X51635Y49208D01*
X52332Y48299D01*
X52969Y47346D01*
X53542Y46354D01*
X54049Y45326D01*
X54487Y44268D01*
X54855Y43183D01*
X55152Y42076D01*
X55376Y40952D01*
X55525Y39816D01*
X55600Y38673D01*
X55600Y37527D01*
X55600Y459427D02*
X55525Y458284D01*
X55376Y457148D01*
X55152Y456024D01*
X54855Y454917D01*
X54487Y453832D01*
X54049Y452774D01*
X53542Y451746D01*
X52969Y450754D01*
X52332Y449801D01*
X51635Y448892D01*
X50879Y448031D01*
X50069Y447221D01*
X49208Y446465D01*
X48299Y445768D01*
X47346Y445131D01*
X46354Y444558D01*
X45326Y444051D01*
X44268Y443613D01*
X43183Y443245D01*
X42076Y442948D01*
X40952Y442725D01*
X39816Y442575D01*
X38673Y442500D01*
X37527Y442500D01*
X36384Y442575D01*
X35248Y442725D01*
X34124Y442948D01*
X33017Y443245D01*
X31932Y443613D01*
X30874Y444051D01*
X29846Y444558D01*
X28854Y445131D01*
X27901Y445768D01*
X26992Y446465D01*
X26131Y447221D01*
X25321Y448031D01*
X24565Y448892D01*
X23868Y449801D01*
X23231Y450754D01*
X22658Y451746D01*
X22151Y452774D01*
X21713Y453832D01*
X21345Y454917D01*
X21048Y456024D01*
X20825Y457148D01*
X20675Y458284D01*
X20600Y459427D01*
X20600Y460573D01*
X20675Y461716D01*
X20825Y462852D01*
X21048Y463976D01*
X21345Y465083D01*
X21713Y466168D01*
X22151Y467226D01*
X22658Y468254D01*
X23231Y469246D01*
X23868Y470199D01*
X24565Y471108D01*
X25321Y471969D01*
X26131Y472779D01*
X26992Y473535D01*
X27901Y474232D01*
X28854Y474869D01*
X29846Y475442D01*
X30874Y475949D01*
X31932Y476387D01*
X33017Y476755D01*
X34124Y477052D01*
X35248Y477276D01*
X36384Y477425D01*
X37527Y477500D01*
X38673Y477500D01*
X39816Y477425D01*
X40952Y477276D01*
X42076Y477052D01*
X43183Y476755D01*
X44268Y476387D01*
X45326Y475949D01*
X46354Y475442D01*
X47346Y474869D01*
X48299Y474232D01*
X49208Y473535D01*
X50069Y472779D01*
X50879Y471969D01*
X51635Y471108D01*
X52332Y470199D01*
X52969Y469246D01*
X53542Y468254D01*
X54049Y467226D01*
X54487Y466168D01*
X54855Y465083D01*
X55152Y463976D01*
X55376Y462852D01*
X55525Y461716D01*
X55600Y460573D01*
X55600Y459427D01*
X684400Y459427D02*
X684325Y458284D01*
X684176Y457148D01*
X683952Y456024D01*
X683655Y454917D01*
X683287Y453832D01*
X682849Y452774D01*
X682342Y451746D01*
X681769Y450754D01*
X681132Y449801D01*
X680435Y448892D01*
X679679Y448031D01*
X678869Y447221D01*
X678008Y446465D01*
X677099Y445768D01*
X676146Y445131D01*
X675154Y444558D01*
X674126Y444051D01*
X673068Y443613D01*
X671983Y443245D01*
X670876Y442948D01*
X669752Y442725D01*
X668616Y442575D01*
X667473Y442500D01*
X666327Y442500D01*
X665184Y442575D01*
X664048Y442725D01*
X662924Y442948D01*
X661817Y443245D01*
X660732Y443613D01*
X659674Y444051D01*
X658646Y444558D01*
X657654Y445131D01*
X656701Y445768D01*
X655792Y446465D01*
X654931Y447221D01*
X654121Y448031D01*
X653365Y448892D01*
X652668Y449801D01*
X652031Y450754D01*
X651458Y451746D01*
X650951Y452774D01*
X650513Y453832D01*
X650145Y454917D01*
X649848Y456024D01*
X649625Y457148D01*
X649475Y458284D01*
X649400Y459427D01*
X649400Y460573D01*
X649475Y461716D01*
X649625Y462852D01*
X649848Y463976D01*
X650145Y465083D01*
X650513Y466168D01*
X650951Y467226D01*
X651458Y468254D01*
X652031Y469246D01*
X652668Y470199D01*
X653365Y471108D01*
X654121Y471969D01*
X654931Y472779D01*
X655792Y473535D01*
X656701Y474232D01*
X657654Y474869D01*
X658646Y475442D01*
X659674Y475949D01*
X660732Y476387D01*
X661817Y476755D01*
X662924Y477052D01*
X664048Y477276D01*
X665184Y477425D01*
X666327Y477500D01*
X667473Y477500D01*
X668616Y477425D01*
X669752Y477276D01*
X670876Y477052D01*
X671983Y476755D01*
X673068Y476387D01*
X674126Y475949D01*
X675154Y475442D01*
X676146Y474869D01*
X677099Y474232D01*
X678008Y473535D01*
X678869Y472779D01*
X679679Y471969D01*
X680435Y471108D01*
X681132Y470199D01*
X681769Y469246D01*
X682342Y468254D01*
X682849Y467226D01*
X683287Y466168D01*
X683655Y465083D01*
X683952Y463976D01*
X684176Y462852D01*
X684325Y461716D01*
X684400Y460573D01*
X684400Y459427D01*
X684400Y37527D02*
X684325Y36384D01*
X684176Y35248D01*
X683952Y34124D01*
X683655Y33017D01*
X683287Y31932D01*
X682849Y30874D01*
X682342Y29846D01*
X681769Y28854D01*
X681132Y27901D01*
X680435Y26992D01*
X679679Y26131D01*
X678869Y25321D01*
X678008Y24565D01*
X677099Y23868D01*
X676146Y23231D01*
X675154Y22658D01*
X674126Y22151D01*
X673068Y21713D01*
X671983Y21345D01*
X670876Y21048D01*
X669752Y20825D01*
X668616Y20675D01*
X667473Y20600D01*
X666327Y20600D01*
X665184Y20675D01*
X664048Y20825D01*
X662924Y21048D01*
X661817Y21345D01*
X660732Y21713D01*
X659674Y22151D01*
X658646Y22658D01*
X657654Y23231D01*
X656701Y23868D01*
X655792Y24565D01*
X654931Y25321D01*
X654121Y26131D01*
X653365Y26992D01*
X652668Y27901D01*
X652031Y28854D01*
X651458Y29846D01*
X650951Y30874D01*
X650513Y31932D01*
X650145Y33017D01*
X649848Y34124D01*
X649625Y35248D01*
X649475Y36384D01*
X649400Y37527D01*
X649400Y38673D01*
X649475Y39816D01*
X649625Y40952D01*
X649848Y42076D01*
X650145Y43183D01*
X650513Y44268D01*
X650951Y45326D01*
X651458Y46354D01*
X652031Y47346D01*
X652668Y48299D01*
X653365Y49208D01*
X654121Y50069D01*
X654931Y50879D01*
X655792Y51635D01*
X656701Y52332D01*
X657654Y52969D01*
X658646Y53542D01*
X659674Y54049D01*
X660732Y54487D01*
X661817Y54855D01*
X662924Y55152D01*
X664048Y55376D01*
X665184Y55525D01*
X666327Y55600D01*
X667473Y55600D01*
X668616Y55525D01*
X669752Y55376D01*
X670876Y55152D01*
X671983Y54855D01*
X673068Y54487D01*
X674126Y54049D01*
X675154Y53542D01*
X676146Y52969D01*
X677099Y52332D01*
X678008Y51635D01*
X678869Y50879D01*
X679679Y50069D01*
X680435Y49208D01*
X681132Y48299D01*
X681769Y47346D01*
X682342Y46354D01*
X682849Y45326D01*
X683287Y44268D01*
X683655Y43183D01*
X683952Y42076D01*
X684176Y40952D01*
X684325Y39816D01*
X684400Y38673D01*
X684400Y37527D01*
M02*
