G04 EAGLE Gerber RS-274X export*
G75*
%MOMM*%
%FSLAX34Y34*%
%LPD*%
%INSolderpaste Top*%
%IPPOS*%
%AMOC8*
5,1,8,0,0,1.08239X$1,22.5*%
G01*
%ADD10R,1.600000X1.800000*%
%ADD11R,1.500000X1.200000*%
%ADD12R,1.050000X1.500000*%
%ADD13R,2.400000X1.500000*%
%ADD14R,1.800000X3.150000*%
%ADD15R,1.500000X0.500000*%
%ADD16R,0.500000X1.500000*%
%ADD17R,3.250000X2.500000*%
%ADD18R,0.250000X0.700000*%
%ADD19R,0.700000X0.250000*%
%ADD20R,2.900000X1.700000*%
%ADD21R,0.300000X0.900000*%
%ADD22R,1.500000X1.300000*%
%ADD23R,1.300000X1.500000*%
%ADD24R,1.100000X1.900000*%
%ADD25R,1.525000X0.760000*%
%ADD26R,2.200000X0.600000*%


D10*
X244500Y127000D03*
X272500Y127000D03*
X244500Y101600D03*
X272500Y101600D03*
D11*
X106100Y218600D03*
X106100Y238600D03*
D10*
X244500Y241300D03*
X272500Y241300D03*
D12*
X90850Y101600D03*
D13*
X114600Y101600D03*
D14*
X156050Y114300D03*
X208550Y114300D03*
D15*
X384200Y397300D03*
X384200Y389300D03*
X384200Y381300D03*
X384200Y373300D03*
X384200Y365300D03*
X384200Y357300D03*
X384200Y349300D03*
X384200Y341300D03*
X384200Y333300D03*
X384200Y325300D03*
X384200Y317300D03*
D16*
X402200Y299300D03*
X410200Y299300D03*
X418200Y299300D03*
X426200Y299300D03*
X434200Y299300D03*
X442200Y299300D03*
X450200Y299300D03*
X458200Y299300D03*
X466200Y299300D03*
X474200Y299300D03*
X482200Y299300D03*
D15*
X500200Y317300D03*
X500200Y325300D03*
X500200Y333300D03*
X500200Y341300D03*
X500200Y349300D03*
X500200Y357300D03*
X500200Y365300D03*
X500200Y373300D03*
X500200Y381300D03*
X500200Y389300D03*
X500200Y397300D03*
D16*
X482200Y415300D03*
X474200Y415300D03*
X466200Y415300D03*
X458200Y415300D03*
X450200Y415300D03*
X442200Y415300D03*
X434200Y415300D03*
X426200Y415300D03*
X418200Y415300D03*
X410200Y415300D03*
X402200Y415300D03*
D17*
X182300Y160500D03*
X182300Y220500D03*
D11*
X131500Y218600D03*
X131500Y238600D03*
X296600Y225900D03*
X296600Y205900D03*
D18*
X631200Y373600D03*
X621200Y373600D03*
X611200Y373600D03*
X601200Y373600D03*
X591200Y373600D03*
D19*
X586200Y350600D03*
X586200Y360600D03*
D18*
X586200Y342600D03*
X596200Y342600D03*
X606200Y342600D03*
X616200Y342600D03*
X626200Y342600D03*
D19*
X631200Y350600D03*
X631200Y360600D03*
X631200Y355600D03*
X631200Y365600D03*
D18*
X626200Y373600D03*
X616200Y373600D03*
X606200Y373600D03*
X596200Y373600D03*
X586200Y373600D03*
D19*
X586200Y365600D03*
X586200Y355600D03*
D18*
X591200Y342600D03*
X601200Y342600D03*
X611200Y342600D03*
X621200Y342600D03*
X631200Y342600D03*
D20*
X106100Y177800D03*
D21*
X108600Y199300D03*
X108600Y156300D03*
X113600Y199300D03*
X98600Y199300D03*
X98600Y156300D03*
X113600Y156300D03*
X118600Y156300D03*
X118600Y199300D03*
X123600Y199300D03*
X88600Y199300D03*
X88600Y156300D03*
X123600Y156300D03*
D22*
X603400Y399400D03*
X603400Y418400D03*
D23*
X662700Y358100D03*
X681700Y358100D03*
X662700Y332700D03*
X681700Y332700D03*
D24*
X603700Y316300D03*
X628700Y316300D03*
D22*
X601000Y288500D03*
X601000Y269500D03*
X629500Y288500D03*
X629500Y269500D03*
X260000Y308400D03*
X260000Y289400D03*
X537000Y374800D03*
X537000Y355800D03*
X537500Y417800D03*
X537500Y398800D03*
X625000Y399200D03*
X625000Y418200D03*
X646800Y399400D03*
X646800Y418400D03*
X669200Y399400D03*
X669200Y418400D03*
X582000Y418400D03*
X582000Y399400D03*
X559600Y399400D03*
X559600Y418400D03*
D25*
X493150Y271050D03*
X386650Y271050D03*
X386650Y258550D03*
X386650Y246050D03*
X493150Y233550D03*
X386650Y196050D03*
X386650Y208550D03*
X386650Y233550D03*
X386650Y220550D03*
X493150Y221050D03*
X493150Y246050D03*
X386650Y183550D03*
X493150Y208550D03*
X493150Y258550D03*
X493150Y196050D03*
X493150Y183550D03*
D23*
X519400Y270300D03*
X538400Y270300D03*
X527400Y221300D03*
X546400Y221300D03*
X546600Y194200D03*
X527600Y194200D03*
D22*
X575200Y221900D03*
X575200Y240900D03*
X362300Y249100D03*
X362300Y230100D03*
D23*
X389400Y151400D03*
X408400Y151400D03*
D26*
X361500Y122950D03*
X309500Y122950D03*
X361500Y110250D03*
X361500Y135650D03*
X361500Y148350D03*
X309500Y110250D03*
X309500Y135650D03*
X309500Y148350D03*
D23*
X318200Y171600D03*
X299200Y171600D03*
D10*
X244500Y215900D03*
X272500Y215900D03*
X244500Y190500D03*
X272500Y190500D03*
X244500Y165100D03*
X272500Y165100D03*
M02*
