G04 EAGLE Gerber RS-274X export*
G75*
%MOMM*%
%FSLAX34Y34*%
%LPD*%
%INSoldermask Bottom*%
%IPPOS*%
%AMOC8*
5,1,8,0,0,1.08239X$1,22.5*%
G01*
%ADD10C,3.500000*%
%ADD11C,1.200000*%
%ADD12P,1.484606X8X202.500000*%
%ADD13C,1.879600*%
%ADD14C,1.950000*%


D10*
X38100Y38100D03*
X38100Y460000D03*
X666900Y460000D03*
X666900Y38100D03*
D11*
X189300Y392000D03*
X189300Y366600D03*
X189300Y341200D03*
X189300Y315800D03*
X189300Y290400D03*
X189300Y265000D03*
X62300Y392000D03*
X62300Y366600D03*
X62300Y341200D03*
X62300Y315800D03*
X62300Y290400D03*
X62300Y265000D03*
D12*
X315500Y395400D03*
X315500Y370000D03*
X290100Y395400D03*
X290100Y370000D03*
X264700Y395400D03*
X264700Y370000D03*
D13*
X352412Y271594D03*
X287388Y271594D03*
X352412Y316806D03*
X287388Y316806D03*
D14*
X627300Y189100D03*
X627300Y154100D03*
X627300Y224100D03*
X627300Y119100D03*
X372900Y75600D03*
X337900Y75600D03*
X407900Y75600D03*
X302900Y75600D03*
X531900Y75000D03*
X496900Y75000D03*
X566900Y75000D03*
X461900Y75000D03*
X195000Y76200D03*
X233100Y76200D03*
X93400Y76200D03*
X131500Y76200D03*
M02*
