M48
;GenerationSoftware,Autodesk,EAGLE,9.5.2*%
;CreationDate,2020-01-23T13:45:54Z*%
FMAT,2
ICI,OFF
METRIC,TZ,000.000
T5C0.800
T4C1.000
T3C1.118
T2C1.300
T1C3.500
%
G90
M71
T1
X3810Y80010
X3810Y3810
X64770Y3810
X64770Y80010
T2
X48260Y7620
X52070Y7620
X38100Y7620
X41910Y7620
T3
X33020Y2540
X33020Y12700
T4
X10160Y10160
X27940Y45720
X27940Y48260
X10160Y27940
X10160Y25400
X10160Y22860
X10160Y20320
X10160Y17780
X10160Y15240
X10160Y12700
X27940Y50800
X10160Y7620
X10160Y5080
X10160Y2540
X27940Y2540
X27940Y5080
X27940Y7620
X27940Y10160
X27940Y12700
X27940Y15240
X27940Y17780
X27940Y20320
X27940Y22860
X27940Y25400
X27940Y27940
X27940Y30480
X27940Y33020
X27940Y35560
X27940Y38100
X27940Y40640
X10160Y30480
X10160Y33020
X10160Y35560
X10160Y38100
X10160Y40640
X10160Y43180
X10160Y45720
X10160Y48260
X10160Y50800
X27940Y43180
T5
X55880Y17780
X55880Y15240
X55880Y20320
X33020Y30480
X33020Y33020
X33020Y35560
X33020Y38100
X33020Y40640
X33020Y43180
X33020Y45720
X33020Y48260
X38100Y33020
X38100Y35560
X38100Y38100
X38100Y40640
X38100Y43180
X38100Y45720
X55880Y30480
X55880Y33020
X55880Y35560
X55880Y38100
X55880Y40640
X55880Y43180
X55880Y45720
X55880Y48260
X33020Y71120
X35560Y71120
X38100Y71120
X40640Y71120
X43180Y71120
X45720Y71120
X33020Y58420
X35560Y58420
X38100Y58420
X40640Y58420
X43180Y58420
X45720Y58420
M30