G04 EAGLE Gerber RS-274X export*
G75*
%MOMM*%
%FSLAX34Y34*%
%LPD*%
%IN*%
%IPPOS*%
%AMOC8*
5,1,8,0,0,1.08239X$1,22.5*%
G01*
%ADD10C,0.254000*%


D10*
X0Y30000D02*
X114Y27385D01*
X456Y24791D01*
X1022Y22235D01*
X1809Y19739D01*
X2811Y17321D01*
X4019Y15000D01*
X5425Y12793D01*
X7019Y10716D01*
X8787Y8787D01*
X10716Y7019D01*
X12793Y5425D01*
X15000Y4019D01*
X17321Y2811D01*
X19739Y1809D01*
X22235Y1022D01*
X24791Y456D01*
X27385Y114D01*
X30000Y0D01*
X655600Y0D01*
X658215Y114D01*
X660809Y456D01*
X663365Y1022D01*
X665861Y1809D01*
X668279Y2811D01*
X670600Y4019D01*
X672807Y5425D01*
X674884Y7019D01*
X676813Y8787D01*
X678581Y10716D01*
X680175Y12793D01*
X681581Y15000D01*
X682789Y17321D01*
X683791Y19739D01*
X684578Y22235D01*
X685144Y24791D01*
X685486Y27385D01*
X685600Y30000D01*
X685600Y817600D01*
X685486Y820215D01*
X685144Y822809D01*
X684578Y825365D01*
X683791Y827861D01*
X682789Y830279D01*
X681581Y832600D01*
X680175Y834807D01*
X678581Y836884D01*
X676813Y838813D01*
X674884Y840581D01*
X672807Y842175D01*
X670600Y843581D01*
X668279Y844789D01*
X665861Y845791D01*
X663365Y846578D01*
X660809Y847144D01*
X658215Y847486D01*
X655600Y847600D01*
X30000Y847600D01*
X27385Y847486D01*
X24791Y847144D01*
X22235Y846578D01*
X19739Y845791D01*
X17321Y844789D01*
X15000Y843581D01*
X12793Y842175D01*
X10716Y840581D01*
X8787Y838813D01*
X7019Y836884D01*
X5425Y834807D01*
X4019Y832600D01*
X2811Y830279D01*
X1809Y827861D01*
X1022Y825365D01*
X456Y822809D01*
X114Y820215D01*
X0Y817600D01*
X0Y30000D01*
X55600Y799527D02*
X55525Y798384D01*
X55376Y797248D01*
X55152Y796124D01*
X54855Y795017D01*
X54487Y793932D01*
X54049Y792874D01*
X53542Y791846D01*
X52969Y790854D01*
X52332Y789901D01*
X51635Y788992D01*
X50879Y788131D01*
X50069Y787321D01*
X49208Y786565D01*
X48299Y785868D01*
X47346Y785231D01*
X46354Y784658D01*
X45326Y784151D01*
X44268Y783713D01*
X43183Y783345D01*
X42076Y783048D01*
X40952Y782825D01*
X39816Y782675D01*
X38673Y782600D01*
X37527Y782600D01*
X36384Y782675D01*
X35248Y782825D01*
X34124Y783048D01*
X33017Y783345D01*
X31932Y783713D01*
X30874Y784151D01*
X29846Y784658D01*
X28854Y785231D01*
X27901Y785868D01*
X26992Y786565D01*
X26131Y787321D01*
X25321Y788131D01*
X24565Y788992D01*
X23868Y789901D01*
X23231Y790854D01*
X22658Y791846D01*
X22151Y792874D01*
X21713Y793932D01*
X21345Y795017D01*
X21048Y796124D01*
X20825Y797248D01*
X20675Y798384D01*
X20600Y799527D01*
X20600Y800673D01*
X20675Y801816D01*
X20825Y802952D01*
X21048Y804076D01*
X21345Y805183D01*
X21713Y806268D01*
X22151Y807326D01*
X22658Y808354D01*
X23231Y809346D01*
X23868Y810299D01*
X24565Y811208D01*
X25321Y812069D01*
X26131Y812879D01*
X26992Y813635D01*
X27901Y814332D01*
X28854Y814969D01*
X29846Y815542D01*
X30874Y816049D01*
X31932Y816487D01*
X33017Y816855D01*
X34124Y817152D01*
X35248Y817376D01*
X36384Y817525D01*
X37527Y817600D01*
X38673Y817600D01*
X39816Y817525D01*
X40952Y817376D01*
X42076Y817152D01*
X43183Y816855D01*
X44268Y816487D01*
X45326Y816049D01*
X46354Y815542D01*
X47346Y814969D01*
X48299Y814332D01*
X49208Y813635D01*
X50069Y812879D01*
X50879Y812069D01*
X51635Y811208D01*
X52332Y810299D01*
X52969Y809346D01*
X53542Y808354D01*
X54049Y807326D01*
X54487Y806268D01*
X54855Y805183D01*
X55152Y804076D01*
X55376Y802952D01*
X55525Y801816D01*
X55600Y800673D01*
X55600Y799527D01*
X55600Y37527D02*
X55525Y36384D01*
X55376Y35248D01*
X55152Y34124D01*
X54855Y33017D01*
X54487Y31932D01*
X54049Y30874D01*
X53542Y29846D01*
X52969Y28854D01*
X52332Y27901D01*
X51635Y26992D01*
X50879Y26131D01*
X50069Y25321D01*
X49208Y24565D01*
X48299Y23868D01*
X47346Y23231D01*
X46354Y22658D01*
X45326Y22151D01*
X44268Y21713D01*
X43183Y21345D01*
X42076Y21048D01*
X40952Y20825D01*
X39816Y20675D01*
X38673Y20600D01*
X37527Y20600D01*
X36384Y20675D01*
X35248Y20825D01*
X34124Y21048D01*
X33017Y21345D01*
X31932Y21713D01*
X30874Y22151D01*
X29846Y22658D01*
X28854Y23231D01*
X27901Y23868D01*
X26992Y24565D01*
X26131Y25321D01*
X25321Y26131D01*
X24565Y26992D01*
X23868Y27901D01*
X23231Y28854D01*
X22658Y29846D01*
X22151Y30874D01*
X21713Y31932D01*
X21345Y33017D01*
X21048Y34124D01*
X20825Y35248D01*
X20675Y36384D01*
X20600Y37527D01*
X20600Y38673D01*
X20675Y39816D01*
X20825Y40952D01*
X21048Y42076D01*
X21345Y43183D01*
X21713Y44268D01*
X22151Y45326D01*
X22658Y46354D01*
X23231Y47346D01*
X23868Y48299D01*
X24565Y49208D01*
X25321Y50069D01*
X26131Y50879D01*
X26992Y51635D01*
X27901Y52332D01*
X28854Y52969D01*
X29846Y53542D01*
X30874Y54049D01*
X31932Y54487D01*
X33017Y54855D01*
X34124Y55152D01*
X35248Y55376D01*
X36384Y55525D01*
X37527Y55600D01*
X38673Y55600D01*
X39816Y55525D01*
X40952Y55376D01*
X42076Y55152D01*
X43183Y54855D01*
X44268Y54487D01*
X45326Y54049D01*
X46354Y53542D01*
X47346Y52969D01*
X48299Y52332D01*
X49208Y51635D01*
X50069Y50879D01*
X50879Y50069D01*
X51635Y49208D01*
X52332Y48299D01*
X52969Y47346D01*
X53542Y46354D01*
X54049Y45326D01*
X54487Y44268D01*
X54855Y43183D01*
X55152Y42076D01*
X55376Y40952D01*
X55525Y39816D01*
X55600Y38673D01*
X55600Y37527D01*
X665200Y37527D02*
X665125Y36384D01*
X664976Y35248D01*
X664752Y34124D01*
X664455Y33017D01*
X664087Y31932D01*
X663649Y30874D01*
X663142Y29846D01*
X662569Y28854D01*
X661932Y27901D01*
X661235Y26992D01*
X660479Y26131D01*
X659669Y25321D01*
X658808Y24565D01*
X657899Y23868D01*
X656946Y23231D01*
X655954Y22658D01*
X654926Y22151D01*
X653868Y21713D01*
X652783Y21345D01*
X651676Y21048D01*
X650552Y20825D01*
X649416Y20675D01*
X648273Y20600D01*
X647127Y20600D01*
X645984Y20675D01*
X644848Y20825D01*
X643724Y21048D01*
X642617Y21345D01*
X641532Y21713D01*
X640474Y22151D01*
X639446Y22658D01*
X638454Y23231D01*
X637501Y23868D01*
X636592Y24565D01*
X635731Y25321D01*
X634921Y26131D01*
X634165Y26992D01*
X633468Y27901D01*
X632831Y28854D01*
X632258Y29846D01*
X631751Y30874D01*
X631313Y31932D01*
X630945Y33017D01*
X630648Y34124D01*
X630425Y35248D01*
X630275Y36384D01*
X630200Y37527D01*
X630200Y38673D01*
X630275Y39816D01*
X630425Y40952D01*
X630648Y42076D01*
X630945Y43183D01*
X631313Y44268D01*
X631751Y45326D01*
X632258Y46354D01*
X632831Y47346D01*
X633468Y48299D01*
X634165Y49208D01*
X634921Y50069D01*
X635731Y50879D01*
X636592Y51635D01*
X637501Y52332D01*
X638454Y52969D01*
X639446Y53542D01*
X640474Y54049D01*
X641532Y54487D01*
X642617Y54855D01*
X643724Y55152D01*
X644848Y55376D01*
X645984Y55525D01*
X647127Y55600D01*
X648273Y55600D01*
X649416Y55525D01*
X650552Y55376D01*
X651676Y55152D01*
X652783Y54855D01*
X653868Y54487D01*
X654926Y54049D01*
X655954Y53542D01*
X656946Y52969D01*
X657899Y52332D01*
X658808Y51635D01*
X659669Y50879D01*
X660479Y50069D01*
X661235Y49208D01*
X661932Y48299D01*
X662569Y47346D01*
X663142Y46354D01*
X663649Y45326D01*
X664087Y44268D01*
X664455Y43183D01*
X664752Y42076D01*
X664976Y40952D01*
X665125Y39816D01*
X665200Y38673D01*
X665200Y37527D01*
X665200Y799527D02*
X665125Y798384D01*
X664976Y797248D01*
X664752Y796124D01*
X664455Y795017D01*
X664087Y793932D01*
X663649Y792874D01*
X663142Y791846D01*
X662569Y790854D01*
X661932Y789901D01*
X661235Y788992D01*
X660479Y788131D01*
X659669Y787321D01*
X658808Y786565D01*
X657899Y785868D01*
X656946Y785231D01*
X655954Y784658D01*
X654926Y784151D01*
X653868Y783713D01*
X652783Y783345D01*
X651676Y783048D01*
X650552Y782825D01*
X649416Y782675D01*
X648273Y782600D01*
X647127Y782600D01*
X645984Y782675D01*
X644848Y782825D01*
X643724Y783048D01*
X642617Y783345D01*
X641532Y783713D01*
X640474Y784151D01*
X639446Y784658D01*
X638454Y785231D01*
X637501Y785868D01*
X636592Y786565D01*
X635731Y787321D01*
X634921Y788131D01*
X634165Y788992D01*
X633468Y789901D01*
X632831Y790854D01*
X632258Y791846D01*
X631751Y792874D01*
X631313Y793932D01*
X630945Y795017D01*
X630648Y796124D01*
X630425Y797248D01*
X630275Y798384D01*
X630200Y799527D01*
X630200Y800673D01*
X630275Y801816D01*
X630425Y802952D01*
X630648Y804076D01*
X630945Y805183D01*
X631313Y806268D01*
X631751Y807326D01*
X632258Y808354D01*
X632831Y809346D01*
X633468Y810299D01*
X634165Y811208D01*
X634921Y812069D01*
X635731Y812879D01*
X636592Y813635D01*
X637501Y814332D01*
X638454Y814969D01*
X639446Y815542D01*
X640474Y816049D01*
X641532Y816487D01*
X642617Y816855D01*
X643724Y817152D01*
X644848Y817376D01*
X645984Y817525D01*
X647127Y817600D01*
X648273Y817600D01*
X649416Y817525D01*
X650552Y817376D01*
X651676Y817152D01*
X652783Y816855D01*
X653868Y816487D01*
X654926Y816049D01*
X655954Y815542D01*
X656946Y814969D01*
X657899Y814332D01*
X658808Y813635D01*
X659669Y812879D01*
X660479Y812069D01*
X661235Y811208D01*
X661932Y810299D01*
X662569Y809346D01*
X663142Y808354D01*
X663649Y807326D01*
X664087Y806268D01*
X664455Y805183D01*
X664752Y804076D01*
X664976Y802952D01*
X665125Y801816D01*
X665200Y800673D01*
X665200Y799527D01*
M02*
