G04 EAGLE Gerber RS-274X export*
G75*
%MOMM*%
%FSLAX34Y34*%
%LPD*%
%INSilkscreen Bottom*%
%IPPOS*%
%AMOC8*
5,1,8,0,0,1.08239X$1,22.5*%
G01*
%ADD10C,0.101600*%


D10*
X521208Y145401D02*
X521208Y142804D01*
X521210Y142705D01*
X521216Y142605D01*
X521225Y142506D01*
X521238Y142408D01*
X521255Y142310D01*
X521276Y142212D01*
X521301Y142116D01*
X521329Y142021D01*
X521361Y141927D01*
X521396Y141834D01*
X521435Y141742D01*
X521478Y141652D01*
X521523Y141564D01*
X521573Y141477D01*
X521625Y141393D01*
X521681Y141310D01*
X521739Y141230D01*
X521801Y141152D01*
X521866Y141077D01*
X521934Y141004D01*
X522004Y140934D01*
X522077Y140866D01*
X522152Y140801D01*
X522230Y140739D01*
X522310Y140681D01*
X522393Y140625D01*
X522477Y140573D01*
X522564Y140523D01*
X522652Y140478D01*
X522742Y140435D01*
X522834Y140396D01*
X522927Y140361D01*
X523021Y140329D01*
X523116Y140301D01*
X523212Y140276D01*
X523310Y140255D01*
X523408Y140238D01*
X523506Y140225D01*
X523605Y140216D01*
X523705Y140210D01*
X523804Y140208D01*
X530296Y140208D01*
X530395Y140210D01*
X530495Y140216D01*
X530594Y140225D01*
X530692Y140238D01*
X530790Y140255D01*
X530888Y140276D01*
X530984Y140301D01*
X531079Y140329D01*
X531173Y140361D01*
X531266Y140396D01*
X531358Y140435D01*
X531448Y140478D01*
X531536Y140523D01*
X531623Y140573D01*
X531707Y140625D01*
X531790Y140681D01*
X531870Y140739D01*
X531948Y140801D01*
X532023Y140866D01*
X532096Y140934D01*
X532166Y141004D01*
X532234Y141077D01*
X532299Y141152D01*
X532361Y141230D01*
X532419Y141310D01*
X532475Y141393D01*
X532527Y141477D01*
X532577Y141564D01*
X532622Y141652D01*
X532665Y141742D01*
X532704Y141834D01*
X532739Y141926D01*
X532771Y142021D01*
X532799Y142116D01*
X532824Y142212D01*
X532845Y142310D01*
X532862Y142408D01*
X532875Y142506D01*
X532884Y142605D01*
X532890Y142705D01*
X532892Y142804D01*
X532892Y145401D01*
X530296Y149766D02*
X532892Y153012D01*
X521208Y153012D01*
X521208Y156257D02*
X521208Y149766D01*
X521208Y161196D02*
X521208Y164442D01*
X521210Y164555D01*
X521216Y164668D01*
X521226Y164781D01*
X521240Y164894D01*
X521257Y165006D01*
X521279Y165117D01*
X521304Y165227D01*
X521334Y165337D01*
X521367Y165445D01*
X521404Y165552D01*
X521444Y165658D01*
X521489Y165762D01*
X521537Y165865D01*
X521588Y165966D01*
X521643Y166065D01*
X521701Y166162D01*
X521763Y166257D01*
X521828Y166350D01*
X521896Y166440D01*
X521967Y166528D01*
X522042Y166614D01*
X522119Y166697D01*
X522199Y166777D01*
X522282Y166854D01*
X522368Y166929D01*
X522456Y167000D01*
X522546Y167068D01*
X522639Y167133D01*
X522734Y167195D01*
X522831Y167253D01*
X522930Y167308D01*
X523031Y167359D01*
X523134Y167407D01*
X523238Y167452D01*
X523344Y167492D01*
X523451Y167529D01*
X523559Y167562D01*
X523669Y167592D01*
X523779Y167617D01*
X523890Y167639D01*
X524002Y167656D01*
X524115Y167670D01*
X524228Y167680D01*
X524341Y167686D01*
X524454Y167688D01*
X524567Y167686D01*
X524680Y167680D01*
X524793Y167670D01*
X524906Y167656D01*
X525018Y167639D01*
X525129Y167617D01*
X525239Y167592D01*
X525349Y167562D01*
X525457Y167529D01*
X525564Y167492D01*
X525670Y167452D01*
X525774Y167407D01*
X525877Y167359D01*
X525978Y167308D01*
X526077Y167253D01*
X526174Y167195D01*
X526269Y167133D01*
X526362Y167068D01*
X526452Y167000D01*
X526540Y166929D01*
X526626Y166854D01*
X526709Y166777D01*
X526789Y166697D01*
X526866Y166614D01*
X526941Y166528D01*
X527012Y166440D01*
X527080Y166350D01*
X527145Y166257D01*
X527207Y166162D01*
X527265Y166065D01*
X527320Y165966D01*
X527371Y165865D01*
X527419Y165762D01*
X527464Y165658D01*
X527504Y165552D01*
X527541Y165445D01*
X527574Y165337D01*
X527604Y165227D01*
X527629Y165117D01*
X527651Y165006D01*
X527668Y164894D01*
X527682Y164781D01*
X527692Y164668D01*
X527698Y164555D01*
X527700Y164442D01*
X532892Y165091D02*
X532892Y161196D01*
X532892Y165091D02*
X532890Y165192D01*
X532884Y165292D01*
X532874Y165392D01*
X532861Y165492D01*
X532843Y165591D01*
X532822Y165690D01*
X532797Y165787D01*
X532768Y165884D01*
X532735Y165979D01*
X532699Y166073D01*
X532659Y166165D01*
X532616Y166256D01*
X532569Y166345D01*
X532519Y166432D01*
X532465Y166518D01*
X532408Y166601D01*
X532348Y166681D01*
X532285Y166760D01*
X532218Y166836D01*
X532149Y166909D01*
X532077Y166979D01*
X532003Y167047D01*
X531926Y167112D01*
X531846Y167173D01*
X531764Y167232D01*
X531680Y167287D01*
X531594Y167339D01*
X531506Y167388D01*
X531416Y167433D01*
X531324Y167475D01*
X531231Y167513D01*
X531136Y167547D01*
X531041Y167578D01*
X530944Y167605D01*
X530846Y167628D01*
X530747Y167648D01*
X530647Y167663D01*
X530547Y167675D01*
X530447Y167683D01*
X530346Y167687D01*
X530246Y167687D01*
X530145Y167683D01*
X530045Y167675D01*
X529945Y167663D01*
X529845Y167648D01*
X529746Y167628D01*
X529648Y167605D01*
X529551Y167578D01*
X529456Y167547D01*
X529361Y167513D01*
X529268Y167475D01*
X529176Y167433D01*
X529086Y167388D01*
X528998Y167339D01*
X528912Y167287D01*
X528828Y167232D01*
X528746Y167173D01*
X528666Y167112D01*
X528589Y167047D01*
X528515Y166979D01*
X528443Y166909D01*
X528374Y166836D01*
X528307Y166760D01*
X528244Y166681D01*
X528184Y166601D01*
X528127Y166518D01*
X528073Y166432D01*
X528023Y166345D01*
X527976Y166256D01*
X527933Y166165D01*
X527893Y166073D01*
X527857Y165979D01*
X527824Y165884D01*
X527795Y165787D01*
X527770Y165690D01*
X527749Y165591D01*
X527731Y165492D01*
X527718Y165392D01*
X527708Y165292D01*
X527702Y165192D01*
X527700Y165091D01*
X527699Y165091D02*
X527699Y162494D01*
X483108Y145401D02*
X483108Y142804D01*
X483110Y142705D01*
X483116Y142605D01*
X483125Y142506D01*
X483138Y142408D01*
X483155Y142310D01*
X483176Y142212D01*
X483201Y142116D01*
X483229Y142021D01*
X483261Y141927D01*
X483296Y141834D01*
X483335Y141742D01*
X483378Y141652D01*
X483423Y141564D01*
X483473Y141477D01*
X483525Y141393D01*
X483581Y141310D01*
X483639Y141230D01*
X483701Y141152D01*
X483766Y141077D01*
X483834Y141004D01*
X483904Y140934D01*
X483977Y140866D01*
X484052Y140801D01*
X484130Y140739D01*
X484210Y140681D01*
X484293Y140625D01*
X484377Y140573D01*
X484464Y140523D01*
X484552Y140478D01*
X484642Y140435D01*
X484734Y140396D01*
X484827Y140361D01*
X484921Y140329D01*
X485016Y140301D01*
X485112Y140276D01*
X485210Y140255D01*
X485308Y140238D01*
X485406Y140225D01*
X485505Y140216D01*
X485605Y140210D01*
X485704Y140208D01*
X492196Y140208D01*
X492295Y140210D01*
X492395Y140216D01*
X492494Y140225D01*
X492592Y140238D01*
X492690Y140255D01*
X492788Y140276D01*
X492884Y140301D01*
X492979Y140329D01*
X493073Y140361D01*
X493166Y140396D01*
X493258Y140435D01*
X493348Y140478D01*
X493436Y140523D01*
X493523Y140573D01*
X493607Y140625D01*
X493690Y140681D01*
X493770Y140739D01*
X493848Y140801D01*
X493923Y140866D01*
X493996Y140934D01*
X494066Y141004D01*
X494134Y141077D01*
X494199Y141152D01*
X494261Y141230D01*
X494319Y141310D01*
X494375Y141393D01*
X494427Y141477D01*
X494477Y141564D01*
X494522Y141652D01*
X494565Y141742D01*
X494604Y141834D01*
X494639Y141926D01*
X494671Y142021D01*
X494699Y142116D01*
X494724Y142212D01*
X494745Y142310D01*
X494762Y142408D01*
X494775Y142506D01*
X494784Y142605D01*
X494790Y142705D01*
X494792Y142804D01*
X494792Y145401D01*
X494792Y153336D02*
X494790Y153443D01*
X494784Y153549D01*
X494774Y153655D01*
X494761Y153761D01*
X494743Y153867D01*
X494722Y153971D01*
X494697Y154075D01*
X494668Y154178D01*
X494636Y154279D01*
X494599Y154379D01*
X494559Y154478D01*
X494516Y154576D01*
X494469Y154672D01*
X494418Y154766D01*
X494364Y154858D01*
X494307Y154948D01*
X494247Y155036D01*
X494183Y155121D01*
X494116Y155204D01*
X494046Y155285D01*
X493974Y155363D01*
X493898Y155439D01*
X493820Y155511D01*
X493739Y155581D01*
X493656Y155648D01*
X493571Y155712D01*
X493483Y155772D01*
X493393Y155829D01*
X493301Y155883D01*
X493207Y155934D01*
X493111Y155981D01*
X493013Y156024D01*
X492914Y156064D01*
X492814Y156101D01*
X492713Y156133D01*
X492610Y156162D01*
X492506Y156187D01*
X492402Y156208D01*
X492296Y156226D01*
X492190Y156239D01*
X492084Y156249D01*
X491978Y156255D01*
X491871Y156257D01*
X494792Y153336D02*
X494790Y153215D01*
X494784Y153094D01*
X494774Y152974D01*
X494761Y152853D01*
X494743Y152734D01*
X494722Y152614D01*
X494697Y152496D01*
X494668Y152379D01*
X494635Y152262D01*
X494599Y152147D01*
X494558Y152033D01*
X494515Y151920D01*
X494467Y151808D01*
X494416Y151699D01*
X494361Y151591D01*
X494303Y151484D01*
X494242Y151380D01*
X494177Y151278D01*
X494109Y151178D01*
X494038Y151080D01*
X493964Y150984D01*
X493887Y150891D01*
X493806Y150801D01*
X493723Y150713D01*
X493637Y150628D01*
X493548Y150545D01*
X493457Y150466D01*
X493363Y150389D01*
X493267Y150316D01*
X493169Y150246D01*
X493068Y150179D01*
X492965Y150115D01*
X492860Y150055D01*
X492753Y149998D01*
X492645Y149944D01*
X492535Y149894D01*
X492423Y149848D01*
X492310Y149805D01*
X492195Y149766D01*
X489599Y155284D02*
X489676Y155363D01*
X489757Y155439D01*
X489840Y155512D01*
X489925Y155582D01*
X490013Y155649D01*
X490103Y155713D01*
X490195Y155773D01*
X490290Y155830D01*
X490386Y155884D01*
X490484Y155935D01*
X490584Y155982D01*
X490686Y156026D01*
X490789Y156066D01*
X490893Y156102D01*
X490999Y156134D01*
X491105Y156163D01*
X491213Y156188D01*
X491321Y156210D01*
X491431Y156227D01*
X491540Y156241D01*
X491650Y156250D01*
X491761Y156256D01*
X491871Y156258D01*
X489599Y155284D02*
X483108Y149766D01*
X483108Y156257D01*
X485704Y161196D02*
X494792Y163793D01*
X485704Y161196D02*
X485704Y167687D01*
X488301Y165740D02*
X483108Y165740D01*
X594294Y51308D02*
X596891Y51308D01*
X596990Y51310D01*
X597090Y51316D01*
X597189Y51325D01*
X597287Y51338D01*
X597385Y51355D01*
X597483Y51376D01*
X597579Y51401D01*
X597674Y51429D01*
X597768Y51461D01*
X597861Y51496D01*
X597953Y51535D01*
X598043Y51578D01*
X598131Y51623D01*
X598218Y51673D01*
X598302Y51725D01*
X598385Y51781D01*
X598465Y51839D01*
X598543Y51901D01*
X598618Y51966D01*
X598691Y52034D01*
X598761Y52104D01*
X598829Y52177D01*
X598894Y52252D01*
X598956Y52330D01*
X599014Y52410D01*
X599070Y52493D01*
X599122Y52577D01*
X599172Y52664D01*
X599217Y52752D01*
X599260Y52842D01*
X599299Y52934D01*
X599334Y53027D01*
X599366Y53121D01*
X599394Y53216D01*
X599419Y53312D01*
X599440Y53410D01*
X599457Y53508D01*
X599470Y53606D01*
X599479Y53705D01*
X599485Y53805D01*
X599487Y53904D01*
X599487Y60396D01*
X599485Y60495D01*
X599479Y60595D01*
X599470Y60694D01*
X599457Y60792D01*
X599440Y60890D01*
X599419Y60988D01*
X599394Y61084D01*
X599366Y61179D01*
X599334Y61273D01*
X599299Y61366D01*
X599260Y61458D01*
X599217Y61548D01*
X599172Y61636D01*
X599122Y61723D01*
X599070Y61807D01*
X599014Y61890D01*
X598956Y61970D01*
X598894Y62048D01*
X598829Y62123D01*
X598761Y62196D01*
X598691Y62266D01*
X598618Y62334D01*
X598543Y62399D01*
X598465Y62461D01*
X598385Y62519D01*
X598302Y62575D01*
X598218Y62627D01*
X598131Y62677D01*
X598043Y62722D01*
X597953Y62765D01*
X597861Y62804D01*
X597768Y62839D01*
X597674Y62871D01*
X597579Y62899D01*
X597483Y62924D01*
X597385Y62945D01*
X597287Y62962D01*
X597189Y62975D01*
X597090Y62984D01*
X596990Y62990D01*
X596891Y62992D01*
X594294Y62992D01*
X586359Y62992D02*
X586252Y62990D01*
X586146Y62984D01*
X586040Y62974D01*
X585934Y62961D01*
X585828Y62943D01*
X585724Y62922D01*
X585620Y62897D01*
X585517Y62868D01*
X585416Y62836D01*
X585316Y62799D01*
X585217Y62759D01*
X585119Y62716D01*
X585023Y62669D01*
X584929Y62618D01*
X584837Y62564D01*
X584747Y62507D01*
X584659Y62447D01*
X584574Y62383D01*
X584491Y62316D01*
X584410Y62246D01*
X584332Y62174D01*
X584256Y62098D01*
X584184Y62020D01*
X584114Y61939D01*
X584047Y61856D01*
X583983Y61771D01*
X583923Y61683D01*
X583866Y61593D01*
X583812Y61501D01*
X583761Y61407D01*
X583714Y61311D01*
X583671Y61213D01*
X583631Y61114D01*
X583594Y61014D01*
X583562Y60913D01*
X583533Y60810D01*
X583508Y60706D01*
X583487Y60602D01*
X583469Y60496D01*
X583456Y60390D01*
X583446Y60284D01*
X583440Y60178D01*
X583438Y60071D01*
X586359Y62992D02*
X586480Y62990D01*
X586601Y62984D01*
X586721Y62974D01*
X586842Y62961D01*
X586961Y62943D01*
X587081Y62922D01*
X587199Y62897D01*
X587316Y62868D01*
X587433Y62835D01*
X587548Y62799D01*
X587662Y62758D01*
X587775Y62715D01*
X587887Y62667D01*
X587996Y62616D01*
X588104Y62561D01*
X588211Y62503D01*
X588315Y62442D01*
X588417Y62377D01*
X588517Y62309D01*
X588615Y62238D01*
X588711Y62164D01*
X588804Y62087D01*
X588894Y62006D01*
X588982Y61923D01*
X589067Y61837D01*
X589150Y61748D01*
X589229Y61657D01*
X589306Y61563D01*
X589379Y61467D01*
X589449Y61369D01*
X589516Y61268D01*
X589580Y61165D01*
X589641Y61060D01*
X589698Y60953D01*
X589751Y60845D01*
X589801Y60735D01*
X589847Y60623D01*
X589890Y60510D01*
X589929Y60395D01*
X584412Y57799D02*
X584333Y57877D01*
X584257Y57957D01*
X584184Y58040D01*
X584114Y58126D01*
X584047Y58213D01*
X583983Y58304D01*
X583923Y58396D01*
X583865Y58490D01*
X583811Y58587D01*
X583761Y58685D01*
X583714Y58785D01*
X583670Y58886D01*
X583630Y58989D01*
X583594Y59094D01*
X583562Y59199D01*
X583533Y59306D01*
X583508Y59413D01*
X583486Y59522D01*
X583469Y59631D01*
X583455Y59740D01*
X583446Y59850D01*
X583440Y59961D01*
X583438Y60071D01*
X584412Y57799D02*
X589929Y51308D01*
X583438Y51308D01*
X578499Y57799D02*
X574604Y57799D01*
X574505Y57797D01*
X574405Y57791D01*
X574306Y57782D01*
X574208Y57769D01*
X574110Y57752D01*
X574012Y57731D01*
X573916Y57706D01*
X573821Y57678D01*
X573727Y57646D01*
X573634Y57611D01*
X573542Y57572D01*
X573452Y57529D01*
X573364Y57484D01*
X573277Y57434D01*
X573193Y57382D01*
X573110Y57326D01*
X573030Y57268D01*
X572952Y57206D01*
X572877Y57141D01*
X572804Y57073D01*
X572734Y57003D01*
X572666Y56930D01*
X572601Y56855D01*
X572539Y56777D01*
X572481Y56697D01*
X572425Y56614D01*
X572373Y56530D01*
X572323Y56443D01*
X572278Y56355D01*
X572235Y56265D01*
X572196Y56173D01*
X572161Y56080D01*
X572129Y55986D01*
X572101Y55891D01*
X572076Y55795D01*
X572055Y55697D01*
X572038Y55599D01*
X572025Y55501D01*
X572016Y55402D01*
X572010Y55302D01*
X572008Y55203D01*
X572008Y54554D01*
X572010Y54441D01*
X572016Y54328D01*
X572026Y54215D01*
X572040Y54102D01*
X572057Y53990D01*
X572079Y53879D01*
X572104Y53769D01*
X572134Y53659D01*
X572167Y53551D01*
X572204Y53444D01*
X572244Y53338D01*
X572289Y53234D01*
X572337Y53131D01*
X572388Y53030D01*
X572443Y52931D01*
X572501Y52834D01*
X572563Y52739D01*
X572628Y52646D01*
X572696Y52556D01*
X572767Y52468D01*
X572842Y52382D01*
X572919Y52299D01*
X572999Y52219D01*
X573082Y52142D01*
X573168Y52067D01*
X573256Y51996D01*
X573346Y51928D01*
X573439Y51863D01*
X573534Y51801D01*
X573631Y51743D01*
X573730Y51688D01*
X573831Y51637D01*
X573934Y51589D01*
X574038Y51544D01*
X574144Y51504D01*
X574251Y51467D01*
X574359Y51434D01*
X574469Y51404D01*
X574579Y51379D01*
X574690Y51357D01*
X574802Y51340D01*
X574915Y51326D01*
X575028Y51316D01*
X575141Y51310D01*
X575254Y51308D01*
X575367Y51310D01*
X575480Y51316D01*
X575593Y51326D01*
X575706Y51340D01*
X575818Y51357D01*
X575929Y51379D01*
X576039Y51404D01*
X576149Y51434D01*
X576257Y51467D01*
X576364Y51504D01*
X576470Y51544D01*
X576574Y51589D01*
X576677Y51637D01*
X576778Y51688D01*
X576877Y51743D01*
X576974Y51801D01*
X577069Y51863D01*
X577162Y51928D01*
X577252Y51996D01*
X577340Y52067D01*
X577426Y52142D01*
X577509Y52219D01*
X577589Y52299D01*
X577666Y52382D01*
X577741Y52468D01*
X577812Y52556D01*
X577880Y52646D01*
X577945Y52739D01*
X578007Y52834D01*
X578065Y52931D01*
X578120Y53030D01*
X578171Y53131D01*
X578219Y53234D01*
X578264Y53338D01*
X578304Y53444D01*
X578341Y53551D01*
X578374Y53659D01*
X578404Y53769D01*
X578429Y53879D01*
X578451Y53990D01*
X578468Y54102D01*
X578482Y54215D01*
X578492Y54328D01*
X578498Y54441D01*
X578500Y54554D01*
X578499Y54554D02*
X578499Y57799D01*
X578497Y57942D01*
X578491Y58085D01*
X578481Y58228D01*
X578467Y58370D01*
X578450Y58512D01*
X578428Y58654D01*
X578403Y58795D01*
X578373Y58935D01*
X578340Y59074D01*
X578303Y59212D01*
X578262Y59349D01*
X578218Y59485D01*
X578169Y59620D01*
X578117Y59753D01*
X578062Y59885D01*
X578002Y60015D01*
X577939Y60144D01*
X577873Y60271D01*
X577803Y60396D01*
X577730Y60518D01*
X577653Y60639D01*
X577573Y60758D01*
X577490Y60874D01*
X577404Y60989D01*
X577315Y61100D01*
X577222Y61210D01*
X577127Y61316D01*
X577028Y61420D01*
X576927Y61521D01*
X576823Y61620D01*
X576717Y61715D01*
X576607Y61808D01*
X576496Y61897D01*
X576381Y61983D01*
X576265Y62066D01*
X576146Y62146D01*
X576025Y62223D01*
X575903Y62296D01*
X575778Y62366D01*
X575651Y62432D01*
X575522Y62495D01*
X575392Y62555D01*
X575260Y62610D01*
X575127Y62662D01*
X574992Y62711D01*
X574856Y62755D01*
X574719Y62796D01*
X574581Y62833D01*
X574442Y62866D01*
X574302Y62896D01*
X574161Y62921D01*
X574019Y62943D01*
X573877Y62960D01*
X573735Y62974D01*
X573592Y62984D01*
X573449Y62990D01*
X573306Y62992D01*
X594294Y76708D02*
X596891Y76708D01*
X596990Y76710D01*
X597090Y76716D01*
X597189Y76725D01*
X597287Y76738D01*
X597385Y76755D01*
X597483Y76776D01*
X597579Y76801D01*
X597674Y76829D01*
X597768Y76861D01*
X597861Y76896D01*
X597953Y76935D01*
X598043Y76978D01*
X598131Y77023D01*
X598218Y77073D01*
X598302Y77125D01*
X598385Y77181D01*
X598465Y77239D01*
X598543Y77301D01*
X598618Y77366D01*
X598691Y77434D01*
X598761Y77504D01*
X598829Y77577D01*
X598894Y77652D01*
X598956Y77730D01*
X599014Y77810D01*
X599070Y77893D01*
X599122Y77977D01*
X599172Y78064D01*
X599217Y78152D01*
X599260Y78242D01*
X599299Y78334D01*
X599334Y78427D01*
X599366Y78521D01*
X599394Y78616D01*
X599419Y78712D01*
X599440Y78810D01*
X599457Y78908D01*
X599470Y79006D01*
X599479Y79105D01*
X599485Y79205D01*
X599487Y79304D01*
X599487Y85796D01*
X599485Y85895D01*
X599479Y85995D01*
X599470Y86094D01*
X599457Y86192D01*
X599440Y86290D01*
X599419Y86388D01*
X599394Y86484D01*
X599366Y86579D01*
X599334Y86673D01*
X599299Y86766D01*
X599260Y86858D01*
X599217Y86948D01*
X599172Y87036D01*
X599122Y87123D01*
X599070Y87207D01*
X599014Y87290D01*
X598956Y87370D01*
X598894Y87448D01*
X598829Y87523D01*
X598761Y87596D01*
X598691Y87666D01*
X598618Y87734D01*
X598543Y87799D01*
X598465Y87861D01*
X598385Y87919D01*
X598302Y87975D01*
X598218Y88027D01*
X598131Y88077D01*
X598043Y88122D01*
X597953Y88165D01*
X597861Y88204D01*
X597768Y88239D01*
X597674Y88271D01*
X597579Y88299D01*
X597483Y88324D01*
X597385Y88345D01*
X597287Y88362D01*
X597189Y88375D01*
X597090Y88384D01*
X596990Y88390D01*
X596891Y88392D01*
X594294Y88392D01*
X586359Y88392D02*
X586252Y88390D01*
X586146Y88384D01*
X586040Y88374D01*
X585934Y88361D01*
X585828Y88343D01*
X585724Y88322D01*
X585620Y88297D01*
X585517Y88268D01*
X585416Y88236D01*
X585316Y88199D01*
X585217Y88159D01*
X585119Y88116D01*
X585023Y88069D01*
X584929Y88018D01*
X584837Y87964D01*
X584747Y87907D01*
X584659Y87847D01*
X584574Y87783D01*
X584491Y87716D01*
X584410Y87646D01*
X584332Y87574D01*
X584256Y87498D01*
X584184Y87420D01*
X584114Y87339D01*
X584047Y87256D01*
X583983Y87171D01*
X583923Y87083D01*
X583866Y86993D01*
X583812Y86901D01*
X583761Y86807D01*
X583714Y86711D01*
X583671Y86613D01*
X583631Y86514D01*
X583594Y86414D01*
X583562Y86313D01*
X583533Y86210D01*
X583508Y86106D01*
X583487Y86002D01*
X583469Y85896D01*
X583456Y85790D01*
X583446Y85684D01*
X583440Y85578D01*
X583438Y85471D01*
X586359Y88392D02*
X586480Y88390D01*
X586601Y88384D01*
X586721Y88374D01*
X586842Y88361D01*
X586961Y88343D01*
X587081Y88322D01*
X587199Y88297D01*
X587316Y88268D01*
X587433Y88235D01*
X587548Y88199D01*
X587662Y88158D01*
X587775Y88115D01*
X587887Y88067D01*
X587996Y88016D01*
X588104Y87961D01*
X588211Y87903D01*
X588315Y87842D01*
X588417Y87777D01*
X588517Y87709D01*
X588615Y87638D01*
X588711Y87564D01*
X588804Y87487D01*
X588894Y87406D01*
X588982Y87323D01*
X589067Y87237D01*
X589150Y87148D01*
X589229Y87057D01*
X589306Y86963D01*
X589379Y86867D01*
X589449Y86769D01*
X589516Y86668D01*
X589580Y86565D01*
X589641Y86460D01*
X589698Y86353D01*
X589751Y86245D01*
X589801Y86135D01*
X589847Y86023D01*
X589890Y85910D01*
X589929Y85795D01*
X584412Y83199D02*
X584333Y83277D01*
X584257Y83357D01*
X584184Y83440D01*
X584114Y83526D01*
X584047Y83613D01*
X583983Y83704D01*
X583923Y83796D01*
X583865Y83890D01*
X583811Y83987D01*
X583761Y84085D01*
X583714Y84185D01*
X583670Y84286D01*
X583630Y84389D01*
X583594Y84494D01*
X583562Y84599D01*
X583533Y84706D01*
X583508Y84813D01*
X583486Y84922D01*
X583469Y85031D01*
X583455Y85140D01*
X583446Y85250D01*
X583440Y85361D01*
X583438Y85471D01*
X584412Y83199D02*
X589929Y76708D01*
X583438Y76708D01*
X578499Y87094D02*
X578499Y88392D01*
X572008Y88392D01*
X575254Y76708D01*
X404622Y126238D02*
X392938Y126238D01*
X404622Y126238D02*
X404622Y131431D01*
X399429Y131431D02*
X399429Y126238D01*
X402026Y135740D02*
X404622Y138986D01*
X392938Y138986D01*
X392938Y135740D02*
X392938Y142232D01*
X590042Y75692D02*
X590042Y64008D01*
X590042Y75692D02*
X586796Y75692D01*
X586683Y75690D01*
X586570Y75684D01*
X586457Y75674D01*
X586344Y75660D01*
X586232Y75643D01*
X586121Y75621D01*
X586011Y75596D01*
X585901Y75566D01*
X585793Y75533D01*
X585686Y75496D01*
X585580Y75456D01*
X585476Y75411D01*
X585373Y75363D01*
X585272Y75312D01*
X585173Y75257D01*
X585076Y75199D01*
X584981Y75137D01*
X584888Y75072D01*
X584798Y75004D01*
X584710Y74933D01*
X584624Y74858D01*
X584541Y74781D01*
X584461Y74701D01*
X584384Y74618D01*
X584309Y74532D01*
X584238Y74444D01*
X584170Y74354D01*
X584105Y74261D01*
X584043Y74166D01*
X583985Y74069D01*
X583930Y73970D01*
X583879Y73869D01*
X583831Y73766D01*
X583786Y73662D01*
X583746Y73556D01*
X583709Y73449D01*
X583676Y73341D01*
X583646Y73231D01*
X583621Y73121D01*
X583599Y73010D01*
X583582Y72898D01*
X583568Y72785D01*
X583558Y72672D01*
X583552Y72559D01*
X583550Y72446D01*
X583552Y72333D01*
X583558Y72220D01*
X583568Y72107D01*
X583582Y71994D01*
X583599Y71882D01*
X583621Y71771D01*
X583646Y71661D01*
X583676Y71551D01*
X583709Y71443D01*
X583746Y71336D01*
X583786Y71230D01*
X583831Y71126D01*
X583879Y71023D01*
X583930Y70922D01*
X583985Y70823D01*
X584043Y70726D01*
X584105Y70631D01*
X584170Y70538D01*
X584238Y70448D01*
X584309Y70360D01*
X584384Y70274D01*
X584461Y70191D01*
X584541Y70111D01*
X584624Y70034D01*
X584710Y69959D01*
X584798Y69888D01*
X584888Y69820D01*
X584981Y69755D01*
X585076Y69693D01*
X585173Y69635D01*
X585272Y69580D01*
X585373Y69529D01*
X585476Y69481D01*
X585580Y69436D01*
X585686Y69396D01*
X585793Y69359D01*
X585901Y69326D01*
X586011Y69296D01*
X586121Y69271D01*
X586232Y69249D01*
X586344Y69232D01*
X586457Y69218D01*
X586570Y69208D01*
X586683Y69202D01*
X586796Y69200D01*
X586796Y69201D02*
X590042Y69201D01*
X586147Y69201D02*
X583551Y64008D01*
X572195Y72771D02*
X572197Y72878D01*
X572203Y72984D01*
X572213Y73090D01*
X572226Y73196D01*
X572244Y73302D01*
X572265Y73406D01*
X572290Y73510D01*
X572319Y73613D01*
X572351Y73714D01*
X572388Y73814D01*
X572428Y73913D01*
X572471Y74011D01*
X572518Y74107D01*
X572569Y74201D01*
X572623Y74293D01*
X572680Y74383D01*
X572740Y74471D01*
X572804Y74556D01*
X572871Y74639D01*
X572941Y74720D01*
X573013Y74798D01*
X573089Y74874D01*
X573167Y74946D01*
X573248Y75016D01*
X573331Y75083D01*
X573416Y75147D01*
X573504Y75207D01*
X573594Y75264D01*
X573686Y75318D01*
X573780Y75369D01*
X573876Y75416D01*
X573974Y75459D01*
X574073Y75499D01*
X574173Y75536D01*
X574274Y75568D01*
X574377Y75597D01*
X574481Y75622D01*
X574585Y75643D01*
X574691Y75661D01*
X574797Y75674D01*
X574903Y75684D01*
X575009Y75690D01*
X575116Y75692D01*
X575237Y75690D01*
X575358Y75684D01*
X575478Y75674D01*
X575599Y75661D01*
X575718Y75643D01*
X575838Y75622D01*
X575956Y75597D01*
X576073Y75568D01*
X576190Y75535D01*
X576305Y75499D01*
X576419Y75458D01*
X576532Y75415D01*
X576644Y75367D01*
X576753Y75316D01*
X576861Y75261D01*
X576968Y75203D01*
X577072Y75142D01*
X577174Y75077D01*
X577274Y75009D01*
X577372Y74938D01*
X577468Y74864D01*
X577561Y74787D01*
X577651Y74706D01*
X577739Y74623D01*
X577824Y74537D01*
X577907Y74448D01*
X577986Y74357D01*
X578063Y74263D01*
X578136Y74167D01*
X578206Y74069D01*
X578273Y73968D01*
X578337Y73865D01*
X578398Y73760D01*
X578455Y73653D01*
X578508Y73545D01*
X578558Y73435D01*
X578604Y73323D01*
X578647Y73210D01*
X578686Y73095D01*
X573169Y70499D02*
X573090Y70577D01*
X573014Y70657D01*
X572941Y70740D01*
X572871Y70826D01*
X572804Y70913D01*
X572740Y71004D01*
X572680Y71096D01*
X572622Y71190D01*
X572568Y71287D01*
X572518Y71385D01*
X572471Y71485D01*
X572427Y71586D01*
X572387Y71689D01*
X572351Y71794D01*
X572319Y71899D01*
X572290Y72006D01*
X572265Y72113D01*
X572243Y72222D01*
X572226Y72331D01*
X572212Y72440D01*
X572203Y72550D01*
X572197Y72661D01*
X572195Y72771D01*
X573168Y70499D02*
X578686Y64008D01*
X572195Y64008D01*
X560765Y72771D02*
X560767Y72878D01*
X560773Y72984D01*
X560783Y73090D01*
X560796Y73196D01*
X560814Y73302D01*
X560835Y73406D01*
X560860Y73510D01*
X560889Y73613D01*
X560921Y73714D01*
X560958Y73814D01*
X560998Y73913D01*
X561041Y74011D01*
X561088Y74107D01*
X561139Y74201D01*
X561193Y74293D01*
X561250Y74383D01*
X561310Y74471D01*
X561374Y74556D01*
X561441Y74639D01*
X561511Y74720D01*
X561583Y74798D01*
X561659Y74874D01*
X561737Y74946D01*
X561818Y75016D01*
X561901Y75083D01*
X561986Y75147D01*
X562074Y75207D01*
X562164Y75264D01*
X562256Y75318D01*
X562350Y75369D01*
X562446Y75416D01*
X562544Y75459D01*
X562643Y75499D01*
X562743Y75536D01*
X562844Y75568D01*
X562947Y75597D01*
X563051Y75622D01*
X563155Y75643D01*
X563261Y75661D01*
X563367Y75674D01*
X563473Y75684D01*
X563579Y75690D01*
X563686Y75692D01*
X563807Y75690D01*
X563928Y75684D01*
X564048Y75674D01*
X564169Y75661D01*
X564288Y75643D01*
X564408Y75622D01*
X564526Y75597D01*
X564643Y75568D01*
X564760Y75535D01*
X564875Y75499D01*
X564989Y75458D01*
X565102Y75415D01*
X565214Y75367D01*
X565323Y75316D01*
X565431Y75261D01*
X565538Y75203D01*
X565642Y75142D01*
X565744Y75077D01*
X565844Y75009D01*
X565942Y74938D01*
X566038Y74864D01*
X566131Y74787D01*
X566221Y74706D01*
X566309Y74623D01*
X566394Y74537D01*
X566477Y74448D01*
X566556Y74357D01*
X566633Y74263D01*
X566706Y74167D01*
X566776Y74069D01*
X566843Y73968D01*
X566907Y73865D01*
X566968Y73760D01*
X567025Y73653D01*
X567078Y73545D01*
X567128Y73435D01*
X567174Y73323D01*
X567217Y73210D01*
X567256Y73095D01*
X561739Y70499D02*
X561660Y70577D01*
X561584Y70657D01*
X561511Y70740D01*
X561441Y70826D01*
X561374Y70913D01*
X561310Y71004D01*
X561250Y71096D01*
X561192Y71190D01*
X561138Y71287D01*
X561088Y71385D01*
X561041Y71485D01*
X560997Y71586D01*
X560957Y71689D01*
X560921Y71794D01*
X560889Y71899D01*
X560860Y72006D01*
X560835Y72113D01*
X560813Y72222D01*
X560796Y72331D01*
X560782Y72440D01*
X560773Y72550D01*
X560767Y72661D01*
X560765Y72771D01*
X561738Y70499D02*
X567256Y64008D01*
X560765Y64008D01*
X488442Y203708D02*
X488442Y215392D01*
X485196Y215392D01*
X485083Y215390D01*
X484970Y215384D01*
X484857Y215374D01*
X484744Y215360D01*
X484632Y215343D01*
X484521Y215321D01*
X484411Y215296D01*
X484301Y215266D01*
X484193Y215233D01*
X484086Y215196D01*
X483980Y215156D01*
X483876Y215111D01*
X483773Y215063D01*
X483672Y215012D01*
X483573Y214957D01*
X483476Y214899D01*
X483381Y214837D01*
X483288Y214772D01*
X483198Y214704D01*
X483110Y214633D01*
X483024Y214558D01*
X482941Y214481D01*
X482861Y214401D01*
X482784Y214318D01*
X482709Y214232D01*
X482638Y214144D01*
X482570Y214054D01*
X482505Y213961D01*
X482443Y213866D01*
X482385Y213769D01*
X482330Y213670D01*
X482279Y213569D01*
X482231Y213466D01*
X482186Y213362D01*
X482146Y213256D01*
X482109Y213149D01*
X482076Y213041D01*
X482046Y212931D01*
X482021Y212821D01*
X481999Y212710D01*
X481982Y212598D01*
X481968Y212485D01*
X481958Y212372D01*
X481952Y212259D01*
X481950Y212146D01*
X481952Y212033D01*
X481958Y211920D01*
X481968Y211807D01*
X481982Y211694D01*
X481999Y211582D01*
X482021Y211471D01*
X482046Y211361D01*
X482076Y211251D01*
X482109Y211143D01*
X482146Y211036D01*
X482186Y210930D01*
X482231Y210826D01*
X482279Y210723D01*
X482330Y210622D01*
X482385Y210523D01*
X482443Y210426D01*
X482505Y210331D01*
X482570Y210238D01*
X482638Y210148D01*
X482709Y210060D01*
X482784Y209974D01*
X482861Y209891D01*
X482941Y209811D01*
X483024Y209734D01*
X483110Y209659D01*
X483198Y209588D01*
X483288Y209520D01*
X483381Y209455D01*
X483476Y209393D01*
X483573Y209335D01*
X483672Y209280D01*
X483773Y209229D01*
X483876Y209181D01*
X483980Y209136D01*
X484086Y209096D01*
X484193Y209059D01*
X484301Y209026D01*
X484411Y208996D01*
X484521Y208971D01*
X484632Y208949D01*
X484744Y208932D01*
X484857Y208918D01*
X484970Y208908D01*
X485083Y208902D01*
X485196Y208900D01*
X485196Y208901D02*
X488442Y208901D01*
X484547Y208901D02*
X481951Y203708D01*
X470595Y212471D02*
X470597Y212578D01*
X470603Y212684D01*
X470613Y212790D01*
X470626Y212896D01*
X470644Y213002D01*
X470665Y213106D01*
X470690Y213210D01*
X470719Y213313D01*
X470751Y213414D01*
X470788Y213514D01*
X470828Y213613D01*
X470871Y213711D01*
X470918Y213807D01*
X470969Y213901D01*
X471023Y213993D01*
X471080Y214083D01*
X471140Y214171D01*
X471204Y214256D01*
X471271Y214339D01*
X471341Y214420D01*
X471413Y214498D01*
X471489Y214574D01*
X471567Y214646D01*
X471648Y214716D01*
X471731Y214783D01*
X471816Y214847D01*
X471904Y214907D01*
X471994Y214964D01*
X472086Y215018D01*
X472180Y215069D01*
X472276Y215116D01*
X472374Y215159D01*
X472473Y215199D01*
X472573Y215236D01*
X472674Y215268D01*
X472777Y215297D01*
X472881Y215322D01*
X472985Y215343D01*
X473091Y215361D01*
X473197Y215374D01*
X473303Y215384D01*
X473409Y215390D01*
X473516Y215392D01*
X473637Y215390D01*
X473758Y215384D01*
X473878Y215374D01*
X473999Y215361D01*
X474118Y215343D01*
X474238Y215322D01*
X474356Y215297D01*
X474473Y215268D01*
X474590Y215235D01*
X474705Y215199D01*
X474819Y215158D01*
X474932Y215115D01*
X475044Y215067D01*
X475153Y215016D01*
X475261Y214961D01*
X475368Y214903D01*
X475472Y214842D01*
X475574Y214777D01*
X475674Y214709D01*
X475772Y214638D01*
X475868Y214564D01*
X475961Y214487D01*
X476051Y214406D01*
X476139Y214323D01*
X476224Y214237D01*
X476307Y214148D01*
X476386Y214057D01*
X476463Y213963D01*
X476536Y213867D01*
X476606Y213769D01*
X476673Y213668D01*
X476737Y213565D01*
X476798Y213460D01*
X476855Y213353D01*
X476908Y213245D01*
X476958Y213135D01*
X477004Y213023D01*
X477047Y212910D01*
X477086Y212795D01*
X471569Y210199D02*
X471490Y210277D01*
X471414Y210357D01*
X471341Y210440D01*
X471271Y210526D01*
X471204Y210613D01*
X471140Y210704D01*
X471080Y210796D01*
X471022Y210890D01*
X470968Y210987D01*
X470918Y211085D01*
X470871Y211185D01*
X470827Y211286D01*
X470787Y211389D01*
X470751Y211494D01*
X470719Y211599D01*
X470690Y211706D01*
X470665Y211813D01*
X470643Y211922D01*
X470626Y212031D01*
X470612Y212140D01*
X470603Y212250D01*
X470597Y212361D01*
X470595Y212471D01*
X471568Y210199D02*
X477086Y203708D01*
X470595Y203708D01*
X465656Y203708D02*
X462410Y203708D01*
X462297Y203710D01*
X462184Y203716D01*
X462071Y203726D01*
X461958Y203740D01*
X461846Y203757D01*
X461735Y203779D01*
X461625Y203804D01*
X461515Y203834D01*
X461407Y203867D01*
X461300Y203904D01*
X461194Y203944D01*
X461090Y203989D01*
X460987Y204037D01*
X460886Y204088D01*
X460787Y204143D01*
X460690Y204201D01*
X460595Y204263D01*
X460502Y204328D01*
X460412Y204396D01*
X460324Y204467D01*
X460238Y204542D01*
X460155Y204619D01*
X460075Y204699D01*
X459998Y204782D01*
X459923Y204868D01*
X459852Y204956D01*
X459784Y205046D01*
X459719Y205139D01*
X459657Y205234D01*
X459599Y205331D01*
X459544Y205430D01*
X459493Y205531D01*
X459445Y205634D01*
X459400Y205738D01*
X459360Y205844D01*
X459323Y205951D01*
X459290Y206059D01*
X459260Y206169D01*
X459235Y206279D01*
X459213Y206390D01*
X459196Y206502D01*
X459182Y206615D01*
X459172Y206728D01*
X459166Y206841D01*
X459164Y206954D01*
X459166Y207067D01*
X459172Y207180D01*
X459182Y207293D01*
X459196Y207406D01*
X459213Y207518D01*
X459235Y207629D01*
X459260Y207739D01*
X459290Y207849D01*
X459323Y207957D01*
X459360Y208064D01*
X459400Y208170D01*
X459445Y208274D01*
X459493Y208377D01*
X459544Y208478D01*
X459599Y208577D01*
X459657Y208674D01*
X459719Y208769D01*
X459784Y208862D01*
X459852Y208952D01*
X459923Y209040D01*
X459998Y209126D01*
X460075Y209209D01*
X460155Y209289D01*
X460238Y209366D01*
X460324Y209441D01*
X460412Y209512D01*
X460502Y209580D01*
X460595Y209645D01*
X460690Y209707D01*
X460787Y209765D01*
X460886Y209820D01*
X460987Y209871D01*
X461090Y209919D01*
X461194Y209964D01*
X461300Y210004D01*
X461407Y210041D01*
X461515Y210074D01*
X461625Y210104D01*
X461735Y210129D01*
X461846Y210151D01*
X461958Y210168D01*
X462071Y210182D01*
X462184Y210192D01*
X462297Y210198D01*
X462410Y210200D01*
X461761Y215392D02*
X465656Y215392D01*
X461761Y215392D02*
X461660Y215390D01*
X461560Y215384D01*
X461460Y215374D01*
X461360Y215361D01*
X461261Y215343D01*
X461162Y215322D01*
X461065Y215297D01*
X460968Y215268D01*
X460873Y215235D01*
X460779Y215199D01*
X460687Y215159D01*
X460596Y215116D01*
X460507Y215069D01*
X460420Y215019D01*
X460334Y214965D01*
X460251Y214908D01*
X460171Y214848D01*
X460092Y214785D01*
X460016Y214718D01*
X459943Y214649D01*
X459873Y214577D01*
X459805Y214503D01*
X459740Y214426D01*
X459679Y214346D01*
X459620Y214264D01*
X459565Y214180D01*
X459513Y214094D01*
X459464Y214006D01*
X459419Y213916D01*
X459377Y213824D01*
X459339Y213731D01*
X459305Y213636D01*
X459274Y213541D01*
X459247Y213444D01*
X459224Y213346D01*
X459204Y213247D01*
X459189Y213147D01*
X459177Y213047D01*
X459169Y212947D01*
X459165Y212846D01*
X459165Y212746D01*
X459169Y212645D01*
X459177Y212545D01*
X459189Y212445D01*
X459204Y212345D01*
X459224Y212246D01*
X459247Y212148D01*
X459274Y212051D01*
X459305Y211956D01*
X459339Y211861D01*
X459377Y211768D01*
X459419Y211676D01*
X459464Y211586D01*
X459513Y211498D01*
X459565Y211412D01*
X459620Y211328D01*
X459679Y211246D01*
X459740Y211166D01*
X459805Y211089D01*
X459873Y211015D01*
X459943Y210943D01*
X460016Y210874D01*
X460092Y210807D01*
X460171Y210744D01*
X460251Y210684D01*
X460334Y210627D01*
X460420Y210573D01*
X460507Y210523D01*
X460596Y210476D01*
X460687Y210433D01*
X460779Y210393D01*
X460873Y210357D01*
X460968Y210324D01*
X461065Y210295D01*
X461162Y210270D01*
X461261Y210249D01*
X461360Y210231D01*
X461460Y210218D01*
X461560Y210208D01*
X461660Y210202D01*
X461761Y210200D01*
X461761Y210199D02*
X464357Y210199D01*
X424942Y177292D02*
X424942Y165608D01*
X424942Y177292D02*
X421696Y177292D01*
X421583Y177290D01*
X421470Y177284D01*
X421357Y177274D01*
X421244Y177260D01*
X421132Y177243D01*
X421021Y177221D01*
X420911Y177196D01*
X420801Y177166D01*
X420693Y177133D01*
X420586Y177096D01*
X420480Y177056D01*
X420376Y177011D01*
X420273Y176963D01*
X420172Y176912D01*
X420073Y176857D01*
X419976Y176799D01*
X419881Y176737D01*
X419788Y176672D01*
X419698Y176604D01*
X419610Y176533D01*
X419524Y176458D01*
X419441Y176381D01*
X419361Y176301D01*
X419284Y176218D01*
X419209Y176132D01*
X419138Y176044D01*
X419070Y175954D01*
X419005Y175861D01*
X418943Y175766D01*
X418885Y175669D01*
X418830Y175570D01*
X418779Y175469D01*
X418731Y175366D01*
X418686Y175262D01*
X418646Y175156D01*
X418609Y175049D01*
X418576Y174941D01*
X418546Y174831D01*
X418521Y174721D01*
X418499Y174610D01*
X418482Y174498D01*
X418468Y174385D01*
X418458Y174272D01*
X418452Y174159D01*
X418450Y174046D01*
X418452Y173933D01*
X418458Y173820D01*
X418468Y173707D01*
X418482Y173594D01*
X418499Y173482D01*
X418521Y173371D01*
X418546Y173261D01*
X418576Y173151D01*
X418609Y173043D01*
X418646Y172936D01*
X418686Y172830D01*
X418731Y172726D01*
X418779Y172623D01*
X418830Y172522D01*
X418885Y172423D01*
X418943Y172326D01*
X419005Y172231D01*
X419070Y172138D01*
X419138Y172048D01*
X419209Y171960D01*
X419284Y171874D01*
X419361Y171791D01*
X419441Y171711D01*
X419524Y171634D01*
X419610Y171559D01*
X419698Y171488D01*
X419788Y171420D01*
X419881Y171355D01*
X419976Y171293D01*
X420073Y171235D01*
X420172Y171180D01*
X420273Y171129D01*
X420376Y171081D01*
X420480Y171036D01*
X420586Y170996D01*
X420693Y170959D01*
X420801Y170926D01*
X420911Y170896D01*
X421021Y170871D01*
X421132Y170849D01*
X421244Y170832D01*
X421357Y170818D01*
X421470Y170808D01*
X421583Y170802D01*
X421696Y170800D01*
X421696Y170801D02*
X424942Y170801D01*
X421047Y170801D02*
X418451Y165608D01*
X413586Y175994D02*
X413586Y177292D01*
X407095Y177292D01*
X410340Y165608D01*
M02*
