G04 EAGLE Gerber RS-274X export*
G75*
%MOMM*%
%FSLAX34Y34*%
%LPD*%
%INSilkscreen Top*%
%IPPOS*%
%AMOC8*
5,1,8,0,0,1.08239X$1,22.5*%
G01*
%ADD10C,0.152400*%
%ADD11R,2.540000X0.508000*%
%ADD12R,0.762000X1.905000*%
%ADD13C,0.127000*%
%ADD14C,0.101600*%
%ADD15C,0.500000*%


D10*
X317500Y55880D02*
X317500Y96520D01*
X317500Y55880D02*
X342900Y55880D01*
X342900Y96520D01*
X317500Y96520D01*
X330200Y82550D02*
X330200Y76200D01*
X336550Y66040D02*
X323850Y66040D01*
X330200Y76200D01*
X330200Y60960D01*
X336550Y66040D02*
X330200Y76200D01*
X336550Y76200D01*
X330200Y76200D02*
X323850Y76200D01*
D11*
X330200Y90170D03*
D12*
X330200Y46355D03*
X330200Y106045D03*
D13*
X347345Y77724D02*
X358775Y77724D01*
X347345Y77724D02*
X347345Y80899D01*
X347347Y81010D01*
X347353Y81120D01*
X347362Y81231D01*
X347376Y81341D01*
X347393Y81450D01*
X347414Y81559D01*
X347439Y81667D01*
X347468Y81774D01*
X347500Y81880D01*
X347536Y81985D01*
X347576Y82088D01*
X347619Y82190D01*
X347666Y82291D01*
X347717Y82390D01*
X347770Y82487D01*
X347827Y82581D01*
X347888Y82674D01*
X347951Y82765D01*
X348018Y82854D01*
X348088Y82940D01*
X348161Y83023D01*
X348236Y83105D01*
X348314Y83183D01*
X348396Y83258D01*
X348479Y83331D01*
X348565Y83401D01*
X348654Y83468D01*
X348745Y83531D01*
X348838Y83592D01*
X348933Y83649D01*
X349029Y83702D01*
X349128Y83753D01*
X349229Y83800D01*
X349331Y83843D01*
X349434Y83883D01*
X349539Y83919D01*
X349645Y83951D01*
X349752Y83980D01*
X349860Y84005D01*
X349969Y84026D01*
X350078Y84043D01*
X350188Y84057D01*
X350299Y84066D01*
X350409Y84072D01*
X350520Y84074D01*
X355600Y84074D01*
X355711Y84072D01*
X355821Y84066D01*
X355932Y84057D01*
X356042Y84043D01*
X356151Y84026D01*
X356260Y84005D01*
X356368Y83980D01*
X356475Y83951D01*
X356581Y83919D01*
X356686Y83883D01*
X356789Y83843D01*
X356891Y83800D01*
X356992Y83753D01*
X357091Y83702D01*
X357188Y83649D01*
X357282Y83592D01*
X357375Y83531D01*
X357466Y83468D01*
X357555Y83401D01*
X357641Y83331D01*
X357724Y83258D01*
X357806Y83183D01*
X357884Y83105D01*
X357959Y83023D01*
X358032Y82940D01*
X358102Y82854D01*
X358169Y82765D01*
X358232Y82674D01*
X358293Y82581D01*
X358350Y82487D01*
X358403Y82390D01*
X358454Y82291D01*
X358501Y82190D01*
X358544Y82088D01*
X358584Y81985D01*
X358620Y81880D01*
X358652Y81774D01*
X358681Y81667D01*
X358706Y81559D01*
X358727Y81450D01*
X358744Y81341D01*
X358758Y81231D01*
X358767Y81120D01*
X358773Y81010D01*
X358775Y80899D01*
X358775Y77724D01*
X349885Y89535D02*
X347345Y92710D01*
X358775Y92710D01*
X358775Y89535D02*
X358775Y95885D01*
X456600Y88200D02*
X546700Y88200D01*
X546700Y-3800D01*
X456600Y-3800D01*
X456600Y88200D01*
D14*
X493108Y38392D02*
X493108Y26708D01*
X493108Y38392D02*
X496354Y38392D01*
X496467Y38390D01*
X496580Y38384D01*
X496693Y38374D01*
X496806Y38360D01*
X496918Y38343D01*
X497029Y38321D01*
X497139Y38296D01*
X497249Y38266D01*
X497357Y38233D01*
X497464Y38196D01*
X497570Y38156D01*
X497674Y38111D01*
X497777Y38063D01*
X497878Y38012D01*
X497977Y37957D01*
X498074Y37899D01*
X498169Y37837D01*
X498262Y37772D01*
X498352Y37704D01*
X498440Y37633D01*
X498526Y37558D01*
X498609Y37481D01*
X498689Y37401D01*
X498766Y37318D01*
X498841Y37232D01*
X498912Y37144D01*
X498980Y37054D01*
X499045Y36961D01*
X499107Y36866D01*
X499165Y36769D01*
X499220Y36670D01*
X499271Y36569D01*
X499319Y36466D01*
X499364Y36362D01*
X499404Y36256D01*
X499441Y36149D01*
X499474Y36041D01*
X499504Y35931D01*
X499529Y35821D01*
X499551Y35710D01*
X499568Y35598D01*
X499582Y35485D01*
X499592Y35372D01*
X499598Y35259D01*
X499600Y35146D01*
X499599Y35146D02*
X499599Y29954D01*
X499600Y29954D02*
X499598Y29841D01*
X499592Y29728D01*
X499582Y29615D01*
X499568Y29502D01*
X499551Y29390D01*
X499529Y29279D01*
X499504Y29169D01*
X499474Y29059D01*
X499441Y28951D01*
X499404Y28844D01*
X499364Y28738D01*
X499319Y28634D01*
X499271Y28531D01*
X499220Y28430D01*
X499165Y28331D01*
X499107Y28234D01*
X499045Y28139D01*
X498980Y28046D01*
X498912Y27956D01*
X498841Y27868D01*
X498766Y27782D01*
X498689Y27699D01*
X498609Y27619D01*
X498526Y27542D01*
X498440Y27467D01*
X498352Y27396D01*
X498262Y27328D01*
X498169Y27263D01*
X498074Y27201D01*
X497977Y27143D01*
X497878Y27088D01*
X497777Y27037D01*
X497674Y26989D01*
X497570Y26944D01*
X497464Y26904D01*
X497357Y26867D01*
X497249Y26834D01*
X497139Y26804D01*
X497029Y26779D01*
X496918Y26757D01*
X496806Y26740D01*
X496693Y26726D01*
X496580Y26716D01*
X496467Y26710D01*
X496354Y26708D01*
X493108Y26708D01*
X507647Y29304D02*
X507647Y38392D01*
X507646Y29304D02*
X507644Y29205D01*
X507638Y29105D01*
X507629Y29006D01*
X507616Y28908D01*
X507599Y28810D01*
X507578Y28712D01*
X507553Y28616D01*
X507525Y28521D01*
X507493Y28427D01*
X507458Y28334D01*
X507419Y28242D01*
X507376Y28152D01*
X507331Y28064D01*
X507281Y27977D01*
X507229Y27893D01*
X507173Y27810D01*
X507115Y27730D01*
X507053Y27652D01*
X506988Y27577D01*
X506920Y27504D01*
X506850Y27434D01*
X506777Y27366D01*
X506702Y27301D01*
X506624Y27239D01*
X506544Y27181D01*
X506461Y27125D01*
X506377Y27073D01*
X506290Y27023D01*
X506202Y26978D01*
X506112Y26935D01*
X506020Y26896D01*
X505927Y26861D01*
X505833Y26829D01*
X505738Y26801D01*
X505642Y26776D01*
X505544Y26755D01*
X505446Y26738D01*
X505348Y26725D01*
X505249Y26716D01*
X505149Y26710D01*
X505050Y26708D01*
X503752Y26708D01*
D13*
X445100Y88200D02*
X355000Y88200D01*
X445100Y88200D02*
X445100Y-3800D01*
X355000Y-3800D01*
X355000Y88200D01*
D14*
X391508Y38392D02*
X391508Y26708D01*
X391508Y38392D02*
X394754Y38392D01*
X394867Y38390D01*
X394980Y38384D01*
X395093Y38374D01*
X395206Y38360D01*
X395318Y38343D01*
X395429Y38321D01*
X395539Y38296D01*
X395649Y38266D01*
X395757Y38233D01*
X395864Y38196D01*
X395970Y38156D01*
X396074Y38111D01*
X396177Y38063D01*
X396278Y38012D01*
X396377Y37957D01*
X396474Y37899D01*
X396569Y37837D01*
X396662Y37772D01*
X396752Y37704D01*
X396840Y37633D01*
X396926Y37558D01*
X397009Y37481D01*
X397089Y37401D01*
X397166Y37318D01*
X397241Y37232D01*
X397312Y37144D01*
X397380Y37054D01*
X397445Y36961D01*
X397507Y36866D01*
X397565Y36769D01*
X397620Y36670D01*
X397671Y36569D01*
X397719Y36466D01*
X397764Y36362D01*
X397804Y36256D01*
X397841Y36149D01*
X397874Y36041D01*
X397904Y35931D01*
X397929Y35821D01*
X397951Y35710D01*
X397968Y35598D01*
X397982Y35485D01*
X397992Y35372D01*
X397998Y35259D01*
X398000Y35146D01*
X397999Y35146D02*
X397999Y29954D01*
X398000Y29954D02*
X397998Y29841D01*
X397992Y29728D01*
X397982Y29615D01*
X397968Y29502D01*
X397951Y29390D01*
X397929Y29279D01*
X397904Y29169D01*
X397874Y29059D01*
X397841Y28951D01*
X397804Y28844D01*
X397764Y28738D01*
X397719Y28634D01*
X397671Y28531D01*
X397620Y28430D01*
X397565Y28331D01*
X397507Y28234D01*
X397445Y28139D01*
X397380Y28046D01*
X397312Y27956D01*
X397241Y27868D01*
X397166Y27782D01*
X397089Y27699D01*
X397009Y27619D01*
X396926Y27542D01*
X396840Y27467D01*
X396752Y27396D01*
X396662Y27328D01*
X396569Y27263D01*
X396474Y27201D01*
X396377Y27143D01*
X396278Y27088D01*
X396177Y27037D01*
X396074Y26989D01*
X395970Y26944D01*
X395864Y26904D01*
X395757Y26867D01*
X395649Y26834D01*
X395539Y26804D01*
X395429Y26779D01*
X395318Y26757D01*
X395206Y26740D01*
X395093Y26726D01*
X394980Y26716D01*
X394867Y26710D01*
X394754Y26708D01*
X391508Y26708D01*
X406047Y29304D02*
X406047Y38392D01*
X406046Y29304D02*
X406044Y29205D01*
X406038Y29105D01*
X406029Y29006D01*
X406016Y28908D01*
X405999Y28810D01*
X405978Y28712D01*
X405953Y28616D01*
X405925Y28521D01*
X405893Y28427D01*
X405858Y28334D01*
X405819Y28242D01*
X405776Y28152D01*
X405731Y28064D01*
X405681Y27977D01*
X405629Y27893D01*
X405573Y27810D01*
X405515Y27730D01*
X405453Y27652D01*
X405388Y27577D01*
X405320Y27504D01*
X405250Y27434D01*
X405177Y27366D01*
X405102Y27301D01*
X405024Y27239D01*
X404944Y27181D01*
X404861Y27125D01*
X404777Y27073D01*
X404690Y27023D01*
X404602Y26978D01*
X404512Y26935D01*
X404420Y26896D01*
X404327Y26861D01*
X404233Y26829D01*
X404138Y26801D01*
X404042Y26776D01*
X403944Y26755D01*
X403846Y26738D01*
X403748Y26725D01*
X403649Y26716D01*
X403549Y26710D01*
X403450Y26708D01*
X402152Y26708D01*
D13*
X538800Y236200D02*
X614800Y236200D01*
X538800Y236200D02*
X538800Y119400D01*
X614800Y119400D01*
X614800Y236200D01*
D14*
X578358Y203200D02*
X580954Y199954D01*
X578358Y203200D02*
X590042Y203200D01*
X590042Y199954D02*
X590042Y206446D01*
X581279Y181046D02*
X581172Y181044D01*
X581066Y181038D01*
X580960Y181028D01*
X580854Y181015D01*
X580748Y180997D01*
X580644Y180976D01*
X580540Y180951D01*
X580437Y180922D01*
X580336Y180890D01*
X580236Y180853D01*
X580137Y180813D01*
X580039Y180770D01*
X579943Y180723D01*
X579849Y180672D01*
X579757Y180618D01*
X579667Y180561D01*
X579579Y180501D01*
X579494Y180437D01*
X579411Y180370D01*
X579330Y180300D01*
X579252Y180228D01*
X579176Y180152D01*
X579104Y180074D01*
X579034Y179993D01*
X578967Y179910D01*
X578903Y179825D01*
X578843Y179737D01*
X578786Y179647D01*
X578732Y179555D01*
X578681Y179461D01*
X578634Y179365D01*
X578591Y179267D01*
X578551Y179168D01*
X578514Y179068D01*
X578482Y178967D01*
X578453Y178864D01*
X578428Y178760D01*
X578407Y178656D01*
X578389Y178550D01*
X578376Y178444D01*
X578366Y178338D01*
X578360Y178232D01*
X578358Y178125D01*
X578360Y178004D01*
X578366Y177883D01*
X578376Y177763D01*
X578389Y177642D01*
X578407Y177523D01*
X578428Y177403D01*
X578453Y177285D01*
X578482Y177168D01*
X578515Y177051D01*
X578551Y176936D01*
X578592Y176822D01*
X578635Y176709D01*
X578683Y176597D01*
X578734Y176488D01*
X578789Y176380D01*
X578847Y176273D01*
X578908Y176169D01*
X578973Y176067D01*
X579041Y175967D01*
X579112Y175869D01*
X579186Y175773D01*
X579263Y175680D01*
X579344Y175590D01*
X579427Y175502D01*
X579513Y175417D01*
X579602Y175334D01*
X579693Y175255D01*
X579787Y175178D01*
X579883Y175105D01*
X579981Y175035D01*
X580082Y174968D01*
X580185Y174904D01*
X580290Y174844D01*
X580397Y174786D01*
X580505Y174733D01*
X580615Y174683D01*
X580727Y174637D01*
X580840Y174594D01*
X580955Y174555D01*
X583551Y180071D02*
X583473Y180150D01*
X583393Y180226D01*
X583310Y180299D01*
X583224Y180369D01*
X583137Y180436D01*
X583046Y180500D01*
X582954Y180560D01*
X582860Y180618D01*
X582763Y180672D01*
X582665Y180722D01*
X582565Y180769D01*
X582464Y180813D01*
X582361Y180853D01*
X582256Y180889D01*
X582151Y180921D01*
X582044Y180950D01*
X581937Y180975D01*
X581828Y180997D01*
X581719Y181014D01*
X581610Y181028D01*
X581500Y181037D01*
X581389Y181043D01*
X581279Y181045D01*
X583551Y180072D02*
X590042Y174554D01*
X590042Y181046D01*
X590042Y152400D02*
X590042Y149154D01*
X590042Y152400D02*
X590040Y152513D01*
X590034Y152626D01*
X590024Y152739D01*
X590010Y152852D01*
X589993Y152964D01*
X589971Y153075D01*
X589946Y153185D01*
X589916Y153295D01*
X589883Y153403D01*
X589846Y153510D01*
X589806Y153616D01*
X589761Y153720D01*
X589713Y153823D01*
X589662Y153924D01*
X589607Y154023D01*
X589549Y154120D01*
X589487Y154215D01*
X589422Y154308D01*
X589354Y154398D01*
X589283Y154486D01*
X589208Y154572D01*
X589131Y154655D01*
X589051Y154735D01*
X588968Y154812D01*
X588882Y154887D01*
X588794Y154958D01*
X588704Y155026D01*
X588611Y155091D01*
X588516Y155153D01*
X588419Y155211D01*
X588320Y155266D01*
X588219Y155317D01*
X588116Y155365D01*
X588012Y155410D01*
X587906Y155450D01*
X587799Y155487D01*
X587691Y155520D01*
X587581Y155550D01*
X587471Y155575D01*
X587360Y155597D01*
X587248Y155614D01*
X587135Y155628D01*
X587022Y155638D01*
X586909Y155644D01*
X586796Y155646D01*
X586683Y155644D01*
X586570Y155638D01*
X586457Y155628D01*
X586344Y155614D01*
X586232Y155597D01*
X586121Y155575D01*
X586011Y155550D01*
X585901Y155520D01*
X585793Y155487D01*
X585686Y155450D01*
X585580Y155410D01*
X585476Y155365D01*
X585373Y155317D01*
X585272Y155266D01*
X585173Y155211D01*
X585076Y155153D01*
X584981Y155091D01*
X584888Y155026D01*
X584798Y154958D01*
X584710Y154887D01*
X584624Y154812D01*
X584541Y154735D01*
X584461Y154655D01*
X584384Y154572D01*
X584309Y154486D01*
X584238Y154398D01*
X584170Y154308D01*
X584105Y154215D01*
X584043Y154120D01*
X583985Y154023D01*
X583930Y153924D01*
X583879Y153823D01*
X583831Y153720D01*
X583786Y153616D01*
X583746Y153510D01*
X583709Y153403D01*
X583676Y153295D01*
X583646Y153185D01*
X583621Y153075D01*
X583599Y152964D01*
X583582Y152852D01*
X583568Y152739D01*
X583558Y152626D01*
X583552Y152513D01*
X583550Y152400D01*
X578358Y153049D02*
X578358Y149154D01*
X578358Y153049D02*
X578360Y153150D01*
X578366Y153250D01*
X578376Y153350D01*
X578389Y153450D01*
X578407Y153549D01*
X578428Y153648D01*
X578453Y153745D01*
X578482Y153842D01*
X578515Y153937D01*
X578551Y154031D01*
X578591Y154123D01*
X578634Y154214D01*
X578681Y154303D01*
X578731Y154390D01*
X578785Y154476D01*
X578842Y154559D01*
X578902Y154639D01*
X578965Y154718D01*
X579032Y154794D01*
X579101Y154867D01*
X579173Y154937D01*
X579247Y155005D01*
X579324Y155070D01*
X579404Y155131D01*
X579486Y155190D01*
X579570Y155245D01*
X579656Y155297D01*
X579744Y155346D01*
X579834Y155391D01*
X579926Y155433D01*
X580019Y155471D01*
X580114Y155505D01*
X580209Y155536D01*
X580306Y155563D01*
X580404Y155586D01*
X580503Y155606D01*
X580603Y155621D01*
X580703Y155633D01*
X580803Y155641D01*
X580904Y155645D01*
X581004Y155645D01*
X581105Y155641D01*
X581205Y155633D01*
X581305Y155621D01*
X581405Y155606D01*
X581504Y155586D01*
X581602Y155563D01*
X581699Y155536D01*
X581794Y155505D01*
X581889Y155471D01*
X581982Y155433D01*
X582074Y155391D01*
X582164Y155346D01*
X582252Y155297D01*
X582338Y155245D01*
X582422Y155190D01*
X582504Y155131D01*
X582584Y155070D01*
X582661Y155005D01*
X582735Y154937D01*
X582807Y154867D01*
X582876Y154794D01*
X582943Y154718D01*
X583006Y154639D01*
X583066Y154559D01*
X583123Y154476D01*
X583177Y154390D01*
X583227Y154303D01*
X583274Y154214D01*
X583317Y154123D01*
X583357Y154031D01*
X583393Y153937D01*
X583426Y153842D01*
X583455Y153745D01*
X583480Y153648D01*
X583501Y153549D01*
X583519Y153450D01*
X583532Y153350D01*
X583542Y153250D01*
X583548Y153150D01*
X583550Y153049D01*
X583551Y153049D02*
X583551Y150453D01*
X622808Y133026D02*
X634492Y133026D01*
X622808Y129780D02*
X622808Y136271D01*
X631896Y146558D02*
X631995Y146556D01*
X632095Y146550D01*
X632194Y146541D01*
X632292Y146528D01*
X632390Y146511D01*
X632488Y146490D01*
X632584Y146465D01*
X632679Y146437D01*
X632773Y146405D01*
X632866Y146370D01*
X632958Y146331D01*
X633048Y146288D01*
X633136Y146243D01*
X633223Y146193D01*
X633307Y146141D01*
X633390Y146085D01*
X633470Y146027D01*
X633548Y145965D01*
X633623Y145900D01*
X633696Y145832D01*
X633766Y145762D01*
X633834Y145689D01*
X633899Y145614D01*
X633961Y145536D01*
X634019Y145456D01*
X634075Y145373D01*
X634127Y145289D01*
X634177Y145202D01*
X634222Y145114D01*
X634265Y145024D01*
X634304Y144932D01*
X634339Y144839D01*
X634371Y144745D01*
X634399Y144650D01*
X634424Y144554D01*
X634445Y144456D01*
X634462Y144358D01*
X634475Y144260D01*
X634484Y144161D01*
X634490Y144061D01*
X634492Y143962D01*
X634490Y143818D01*
X634484Y143673D01*
X634475Y143529D01*
X634462Y143386D01*
X634445Y143242D01*
X634424Y143099D01*
X634399Y142957D01*
X634371Y142816D01*
X634339Y142675D01*
X634303Y142535D01*
X634264Y142396D01*
X634221Y142258D01*
X634174Y142122D01*
X634124Y141986D01*
X634070Y141852D01*
X634013Y141720D01*
X633952Y141589D01*
X633888Y141460D01*
X633820Y141332D01*
X633750Y141206D01*
X633675Y141082D01*
X633598Y140961D01*
X633517Y140841D01*
X633434Y140723D01*
X633347Y140608D01*
X633257Y140495D01*
X633164Y140384D01*
X633069Y140276D01*
X632970Y140170D01*
X632869Y140067D01*
X625404Y140392D02*
X625305Y140394D01*
X625205Y140400D01*
X625106Y140409D01*
X625008Y140422D01*
X624910Y140439D01*
X624812Y140460D01*
X624716Y140485D01*
X624621Y140513D01*
X624527Y140545D01*
X624434Y140580D01*
X624342Y140619D01*
X624252Y140662D01*
X624164Y140707D01*
X624077Y140757D01*
X623993Y140809D01*
X623910Y140865D01*
X623830Y140923D01*
X623752Y140985D01*
X623677Y141050D01*
X623604Y141118D01*
X623534Y141188D01*
X623466Y141261D01*
X623401Y141336D01*
X623339Y141414D01*
X623281Y141494D01*
X623225Y141577D01*
X623173Y141661D01*
X623123Y141748D01*
X623078Y141836D01*
X623035Y141926D01*
X622996Y142018D01*
X622961Y142111D01*
X622929Y142205D01*
X622901Y142300D01*
X622876Y142396D01*
X622855Y142494D01*
X622838Y142592D01*
X622825Y142690D01*
X622816Y142789D01*
X622810Y142889D01*
X622808Y142988D01*
X622810Y143124D01*
X622816Y143260D01*
X622825Y143396D01*
X622838Y143532D01*
X622856Y143667D01*
X622876Y143801D01*
X622901Y143935D01*
X622929Y144069D01*
X622962Y144201D01*
X622997Y144332D01*
X623037Y144463D01*
X623080Y144592D01*
X623126Y144720D01*
X623177Y144846D01*
X623230Y144972D01*
X623288Y145095D01*
X623348Y145217D01*
X623412Y145337D01*
X623480Y145456D01*
X623550Y145572D01*
X623624Y145686D01*
X623701Y145799D01*
X623782Y145909D01*
X627676Y141690D02*
X627623Y141604D01*
X627566Y141520D01*
X627507Y141438D01*
X627444Y141358D01*
X627378Y141281D01*
X627310Y141206D01*
X627238Y141134D01*
X627164Y141065D01*
X627087Y140999D01*
X627008Y140936D01*
X626926Y140876D01*
X626842Y140819D01*
X626756Y140765D01*
X626668Y140715D01*
X626578Y140668D01*
X626487Y140624D01*
X626393Y140585D01*
X626299Y140548D01*
X626203Y140516D01*
X626105Y140487D01*
X626007Y140462D01*
X625908Y140441D01*
X625808Y140423D01*
X625708Y140410D01*
X625607Y140400D01*
X625505Y140394D01*
X625404Y140392D01*
X629624Y145260D02*
X629677Y145346D01*
X629734Y145430D01*
X629793Y145512D01*
X629856Y145592D01*
X629922Y145669D01*
X629990Y145744D01*
X630062Y145816D01*
X630136Y145885D01*
X630213Y145951D01*
X630292Y146014D01*
X630374Y146074D01*
X630458Y146131D01*
X630544Y146185D01*
X630632Y146235D01*
X630722Y146282D01*
X630813Y146326D01*
X630907Y146365D01*
X631001Y146402D01*
X631097Y146434D01*
X631195Y146463D01*
X631293Y146488D01*
X631392Y146509D01*
X631492Y146527D01*
X631592Y146540D01*
X631693Y146550D01*
X631795Y146556D01*
X631896Y146558D01*
X629624Y145260D02*
X627676Y141690D01*
X622808Y151571D02*
X634492Y151571D01*
X622808Y151571D02*
X622808Y154816D01*
X622810Y154929D01*
X622816Y155042D01*
X622826Y155155D01*
X622840Y155268D01*
X622857Y155380D01*
X622879Y155491D01*
X622904Y155601D01*
X622934Y155711D01*
X622967Y155819D01*
X623004Y155926D01*
X623044Y156032D01*
X623089Y156136D01*
X623137Y156239D01*
X623188Y156340D01*
X623243Y156439D01*
X623301Y156536D01*
X623363Y156631D01*
X623428Y156724D01*
X623496Y156814D01*
X623567Y156902D01*
X623642Y156988D01*
X623719Y157071D01*
X623799Y157151D01*
X623882Y157228D01*
X623968Y157303D01*
X624056Y157374D01*
X624146Y157442D01*
X624239Y157507D01*
X624334Y157569D01*
X624431Y157627D01*
X624530Y157682D01*
X624631Y157733D01*
X624734Y157781D01*
X624838Y157826D01*
X624944Y157866D01*
X625051Y157903D01*
X625159Y157936D01*
X625269Y157966D01*
X625379Y157991D01*
X625490Y158013D01*
X625602Y158030D01*
X625715Y158044D01*
X625828Y158054D01*
X625941Y158060D01*
X626054Y158062D01*
X626167Y158060D01*
X626280Y158054D01*
X626393Y158044D01*
X626506Y158030D01*
X626618Y158013D01*
X626729Y157991D01*
X626839Y157966D01*
X626949Y157936D01*
X627057Y157903D01*
X627164Y157866D01*
X627270Y157826D01*
X627374Y157781D01*
X627477Y157733D01*
X627578Y157682D01*
X627677Y157627D01*
X627774Y157569D01*
X627869Y157507D01*
X627962Y157442D01*
X628052Y157374D01*
X628140Y157303D01*
X628226Y157228D01*
X628309Y157151D01*
X628389Y157071D01*
X628466Y156988D01*
X628541Y156902D01*
X628612Y156814D01*
X628680Y156724D01*
X628745Y156631D01*
X628807Y156536D01*
X628865Y156439D01*
X628920Y156340D01*
X628971Y156239D01*
X629019Y156136D01*
X629064Y156032D01*
X629104Y155926D01*
X629141Y155819D01*
X629174Y155711D01*
X629204Y155601D01*
X629229Y155491D01*
X629251Y155380D01*
X629268Y155268D01*
X629282Y155155D01*
X629292Y155042D01*
X629298Y154929D01*
X629300Y154816D01*
X629299Y154816D02*
X629299Y151571D01*
X629299Y155465D02*
X634492Y158062D01*
X625404Y162927D02*
X622808Y166173D01*
X634492Y166173D01*
X634492Y169418D02*
X634492Y162927D01*
X629948Y174470D02*
X629948Y182259D01*
X622808Y190881D02*
X622810Y190988D01*
X622816Y191094D01*
X622826Y191200D01*
X622839Y191306D01*
X622857Y191412D01*
X622878Y191516D01*
X622903Y191620D01*
X622932Y191723D01*
X622964Y191824D01*
X623001Y191924D01*
X623041Y192023D01*
X623084Y192121D01*
X623131Y192217D01*
X623182Y192311D01*
X623236Y192403D01*
X623293Y192493D01*
X623353Y192581D01*
X623417Y192666D01*
X623484Y192749D01*
X623554Y192830D01*
X623626Y192908D01*
X623702Y192984D01*
X623780Y193056D01*
X623861Y193126D01*
X623944Y193193D01*
X624029Y193257D01*
X624117Y193317D01*
X624207Y193374D01*
X624299Y193428D01*
X624393Y193479D01*
X624489Y193526D01*
X624587Y193569D01*
X624686Y193609D01*
X624786Y193646D01*
X624887Y193678D01*
X624990Y193707D01*
X625094Y193732D01*
X625198Y193753D01*
X625304Y193771D01*
X625410Y193784D01*
X625516Y193794D01*
X625622Y193800D01*
X625729Y193802D01*
X622808Y190881D02*
X622810Y190760D01*
X622816Y190639D01*
X622826Y190519D01*
X622839Y190398D01*
X622857Y190279D01*
X622878Y190159D01*
X622903Y190041D01*
X622932Y189924D01*
X622965Y189807D01*
X623001Y189692D01*
X623042Y189578D01*
X623085Y189465D01*
X623133Y189353D01*
X623184Y189244D01*
X623239Y189136D01*
X623297Y189029D01*
X623358Y188925D01*
X623423Y188823D01*
X623491Y188723D01*
X623562Y188625D01*
X623636Y188529D01*
X623713Y188436D01*
X623794Y188346D01*
X623877Y188258D01*
X623963Y188173D01*
X624052Y188090D01*
X624143Y188011D01*
X624237Y187934D01*
X624333Y187861D01*
X624431Y187791D01*
X624532Y187724D01*
X624635Y187660D01*
X624740Y187600D01*
X624847Y187542D01*
X624955Y187489D01*
X625065Y187439D01*
X625177Y187393D01*
X625290Y187350D01*
X625405Y187311D01*
X628001Y192828D02*
X627923Y192907D01*
X627843Y192983D01*
X627760Y193056D01*
X627674Y193126D01*
X627587Y193193D01*
X627496Y193257D01*
X627404Y193317D01*
X627310Y193375D01*
X627213Y193429D01*
X627115Y193479D01*
X627015Y193526D01*
X626914Y193570D01*
X626811Y193610D01*
X626706Y193646D01*
X626601Y193678D01*
X626494Y193707D01*
X626387Y193732D01*
X626278Y193754D01*
X626169Y193771D01*
X626060Y193785D01*
X625950Y193794D01*
X625839Y193800D01*
X625729Y193802D01*
X628001Y192828D02*
X634492Y187311D01*
X634492Y193802D01*
X631896Y198741D02*
X622808Y201337D01*
X631896Y198741D02*
X631896Y205232D01*
X629299Y203285D02*
X634492Y203285D01*
X634492Y210171D02*
X634492Y213416D01*
X634490Y213529D01*
X634484Y213642D01*
X634474Y213755D01*
X634460Y213868D01*
X634443Y213980D01*
X634421Y214091D01*
X634396Y214201D01*
X634366Y214311D01*
X634333Y214419D01*
X634296Y214526D01*
X634256Y214632D01*
X634211Y214736D01*
X634163Y214839D01*
X634112Y214940D01*
X634057Y215039D01*
X633999Y215136D01*
X633937Y215231D01*
X633872Y215324D01*
X633804Y215414D01*
X633733Y215502D01*
X633658Y215588D01*
X633581Y215671D01*
X633501Y215751D01*
X633418Y215828D01*
X633332Y215903D01*
X633244Y215974D01*
X633154Y216042D01*
X633061Y216107D01*
X632966Y216169D01*
X632869Y216227D01*
X632770Y216282D01*
X632669Y216333D01*
X632566Y216381D01*
X632462Y216426D01*
X632356Y216466D01*
X632249Y216503D01*
X632141Y216536D01*
X632031Y216566D01*
X631921Y216591D01*
X631810Y216613D01*
X631698Y216630D01*
X631585Y216644D01*
X631472Y216654D01*
X631359Y216660D01*
X631246Y216662D01*
X631133Y216660D01*
X631020Y216654D01*
X630907Y216644D01*
X630794Y216630D01*
X630682Y216613D01*
X630571Y216591D01*
X630461Y216566D01*
X630351Y216536D01*
X630243Y216503D01*
X630136Y216466D01*
X630030Y216426D01*
X629926Y216381D01*
X629823Y216333D01*
X629722Y216282D01*
X629623Y216227D01*
X629526Y216169D01*
X629431Y216107D01*
X629338Y216042D01*
X629248Y215974D01*
X629160Y215903D01*
X629074Y215828D01*
X628991Y215751D01*
X628911Y215671D01*
X628834Y215588D01*
X628759Y215502D01*
X628688Y215414D01*
X628620Y215324D01*
X628555Y215231D01*
X628493Y215136D01*
X628435Y215039D01*
X628380Y214940D01*
X628329Y214839D01*
X628281Y214736D01*
X628236Y214632D01*
X628196Y214526D01*
X628159Y214419D01*
X628126Y214311D01*
X628096Y214201D01*
X628071Y214091D01*
X628049Y213980D01*
X628032Y213868D01*
X628018Y213755D01*
X628008Y213642D01*
X628002Y213529D01*
X628000Y213416D01*
X622808Y214066D02*
X622808Y210171D01*
X622808Y214066D02*
X622810Y214167D01*
X622816Y214267D01*
X622826Y214367D01*
X622839Y214467D01*
X622857Y214566D01*
X622878Y214665D01*
X622903Y214762D01*
X622932Y214859D01*
X622965Y214954D01*
X623001Y215048D01*
X623041Y215140D01*
X623084Y215231D01*
X623131Y215320D01*
X623181Y215407D01*
X623235Y215493D01*
X623292Y215576D01*
X623352Y215656D01*
X623415Y215735D01*
X623482Y215811D01*
X623551Y215884D01*
X623623Y215954D01*
X623697Y216022D01*
X623774Y216087D01*
X623854Y216148D01*
X623936Y216207D01*
X624020Y216262D01*
X624106Y216314D01*
X624194Y216363D01*
X624284Y216408D01*
X624376Y216450D01*
X624469Y216488D01*
X624564Y216522D01*
X624659Y216553D01*
X624756Y216580D01*
X624854Y216603D01*
X624953Y216623D01*
X625053Y216638D01*
X625153Y216650D01*
X625253Y216658D01*
X625354Y216662D01*
X625454Y216662D01*
X625555Y216658D01*
X625655Y216650D01*
X625755Y216638D01*
X625855Y216623D01*
X625954Y216603D01*
X626052Y216580D01*
X626149Y216553D01*
X626244Y216522D01*
X626339Y216488D01*
X626432Y216450D01*
X626524Y216408D01*
X626614Y216363D01*
X626702Y216314D01*
X626788Y216262D01*
X626872Y216207D01*
X626954Y216148D01*
X627034Y216087D01*
X627111Y216022D01*
X627185Y215954D01*
X627257Y215884D01*
X627326Y215811D01*
X627393Y215735D01*
X627456Y215656D01*
X627516Y215576D01*
X627573Y215493D01*
X627627Y215407D01*
X627677Y215320D01*
X627724Y215231D01*
X627767Y215140D01*
X627807Y215048D01*
X627843Y214954D01*
X627876Y214859D01*
X627905Y214762D01*
X627930Y214665D01*
X627951Y214566D01*
X627969Y214467D01*
X627982Y214367D01*
X627992Y214267D01*
X627998Y214167D01*
X628000Y214066D01*
X628001Y214066D02*
X628001Y211469D01*
X634492Y221601D02*
X634492Y224846D01*
X634490Y224959D01*
X634484Y225072D01*
X634474Y225185D01*
X634460Y225298D01*
X634443Y225410D01*
X634421Y225521D01*
X634396Y225631D01*
X634366Y225741D01*
X634333Y225849D01*
X634296Y225956D01*
X634256Y226062D01*
X634211Y226166D01*
X634163Y226269D01*
X634112Y226370D01*
X634057Y226469D01*
X633999Y226566D01*
X633937Y226661D01*
X633872Y226754D01*
X633804Y226844D01*
X633733Y226932D01*
X633658Y227018D01*
X633581Y227101D01*
X633501Y227181D01*
X633418Y227258D01*
X633332Y227333D01*
X633244Y227404D01*
X633154Y227472D01*
X633061Y227537D01*
X632966Y227599D01*
X632869Y227657D01*
X632770Y227712D01*
X632669Y227763D01*
X632566Y227811D01*
X632462Y227856D01*
X632356Y227896D01*
X632249Y227933D01*
X632141Y227966D01*
X632031Y227996D01*
X631921Y228021D01*
X631810Y228043D01*
X631698Y228060D01*
X631585Y228074D01*
X631472Y228084D01*
X631359Y228090D01*
X631246Y228092D01*
X631133Y228090D01*
X631020Y228084D01*
X630907Y228074D01*
X630794Y228060D01*
X630682Y228043D01*
X630571Y228021D01*
X630461Y227996D01*
X630351Y227966D01*
X630243Y227933D01*
X630136Y227896D01*
X630030Y227856D01*
X629926Y227811D01*
X629823Y227763D01*
X629722Y227712D01*
X629623Y227657D01*
X629526Y227599D01*
X629431Y227537D01*
X629338Y227472D01*
X629248Y227404D01*
X629160Y227333D01*
X629074Y227258D01*
X628991Y227181D01*
X628911Y227101D01*
X628834Y227018D01*
X628759Y226932D01*
X628688Y226844D01*
X628620Y226754D01*
X628555Y226661D01*
X628493Y226566D01*
X628435Y226469D01*
X628380Y226370D01*
X628329Y226269D01*
X628281Y226166D01*
X628236Y226062D01*
X628196Y225956D01*
X628159Y225849D01*
X628126Y225741D01*
X628096Y225631D01*
X628071Y225521D01*
X628049Y225410D01*
X628032Y225298D01*
X628018Y225185D01*
X628008Y225072D01*
X628002Y224959D01*
X628000Y224846D01*
X622808Y225496D02*
X622808Y221601D01*
X622808Y225496D02*
X622810Y225597D01*
X622816Y225697D01*
X622826Y225797D01*
X622839Y225897D01*
X622857Y225996D01*
X622878Y226095D01*
X622903Y226192D01*
X622932Y226289D01*
X622965Y226384D01*
X623001Y226478D01*
X623041Y226570D01*
X623084Y226661D01*
X623131Y226750D01*
X623181Y226837D01*
X623235Y226923D01*
X623292Y227006D01*
X623352Y227086D01*
X623415Y227165D01*
X623482Y227241D01*
X623551Y227314D01*
X623623Y227384D01*
X623697Y227452D01*
X623774Y227517D01*
X623854Y227578D01*
X623936Y227637D01*
X624020Y227692D01*
X624106Y227744D01*
X624194Y227793D01*
X624284Y227838D01*
X624376Y227880D01*
X624469Y227918D01*
X624564Y227952D01*
X624659Y227983D01*
X624756Y228010D01*
X624854Y228033D01*
X624953Y228053D01*
X625053Y228068D01*
X625153Y228080D01*
X625253Y228088D01*
X625354Y228092D01*
X625454Y228092D01*
X625555Y228088D01*
X625655Y228080D01*
X625755Y228068D01*
X625855Y228053D01*
X625954Y228033D01*
X626052Y228010D01*
X626149Y227983D01*
X626244Y227952D01*
X626339Y227918D01*
X626432Y227880D01*
X626524Y227838D01*
X626614Y227793D01*
X626702Y227744D01*
X626788Y227692D01*
X626872Y227637D01*
X626954Y227578D01*
X627034Y227517D01*
X627111Y227452D01*
X627185Y227384D01*
X627257Y227314D01*
X627326Y227241D01*
X627393Y227165D01*
X627456Y227086D01*
X627516Y227006D01*
X627573Y226923D01*
X627627Y226837D01*
X627677Y226750D01*
X627724Y226661D01*
X627767Y226570D01*
X627807Y226478D01*
X627843Y226384D01*
X627876Y226289D01*
X627905Y226192D01*
X627930Y226095D01*
X627951Y225996D01*
X627969Y225897D01*
X627982Y225797D01*
X627992Y225697D01*
X627998Y225597D01*
X628000Y225496D01*
X628001Y225496D02*
X628001Y222899D01*
D15*
X295500Y-3300D02*
X85500Y-3300D01*
X85500Y756700D02*
X295500Y756700D01*
X85500Y756700D02*
X85500Y-3300D01*
D13*
X165500Y311700D02*
X165500Y361700D01*
X165500Y311700D02*
X215500Y311700D01*
X215500Y361700D01*
X165500Y361700D01*
X150500Y48700D02*
X150500Y-12700D01*
X230500Y-12700D01*
X230500Y48700D01*
X150500Y48700D01*
X160500Y166700D02*
X160500Y226700D01*
X220500Y226700D01*
X220500Y166700D01*
X160500Y166700D01*
X160500Y511700D02*
X220500Y511700D01*
X220500Y451700D01*
X160500Y451700D01*
X160500Y511700D01*
X101600Y533400D02*
X101600Y660400D01*
X101600Y533400D02*
X254000Y533400D01*
X254000Y660400D01*
X101600Y660400D01*
D15*
X295500Y756700D02*
X295500Y-3300D01*
D13*
X174500Y196700D02*
X174505Y197093D01*
X174519Y197485D01*
X174543Y197877D01*
X174577Y198268D01*
X174620Y198659D01*
X174673Y199048D01*
X174736Y199435D01*
X174807Y199821D01*
X174889Y200206D01*
X174979Y200588D01*
X175080Y200967D01*
X175189Y201345D01*
X175308Y201719D01*
X175435Y202090D01*
X175572Y202458D01*
X175718Y202823D01*
X175873Y203184D01*
X176036Y203541D01*
X176208Y203894D01*
X176389Y204242D01*
X176579Y204586D01*
X176776Y204926D01*
X176982Y205260D01*
X177196Y205589D01*
X177419Y205913D01*
X177649Y206231D01*
X177886Y206544D01*
X178132Y206850D01*
X178385Y207151D01*
X178645Y207445D01*
X178912Y207733D01*
X179186Y208014D01*
X179467Y208288D01*
X179755Y208555D01*
X180049Y208815D01*
X180350Y209068D01*
X180656Y209314D01*
X180969Y209551D01*
X181287Y209781D01*
X181611Y210004D01*
X181940Y210218D01*
X182274Y210424D01*
X182614Y210621D01*
X182958Y210811D01*
X183306Y210992D01*
X183659Y211164D01*
X184016Y211327D01*
X184377Y211482D01*
X184742Y211628D01*
X185110Y211765D01*
X185481Y211892D01*
X185855Y212011D01*
X186233Y212120D01*
X186612Y212221D01*
X186994Y212311D01*
X187379Y212393D01*
X187765Y212464D01*
X188152Y212527D01*
X188541Y212580D01*
X188932Y212623D01*
X189323Y212657D01*
X189715Y212681D01*
X190107Y212695D01*
X190500Y212700D01*
X190893Y212695D01*
X191285Y212681D01*
X191677Y212657D01*
X192068Y212623D01*
X192459Y212580D01*
X192848Y212527D01*
X193235Y212464D01*
X193621Y212393D01*
X194006Y212311D01*
X194388Y212221D01*
X194767Y212120D01*
X195145Y212011D01*
X195519Y211892D01*
X195890Y211765D01*
X196258Y211628D01*
X196623Y211482D01*
X196984Y211327D01*
X197341Y211164D01*
X197694Y210992D01*
X198042Y210811D01*
X198386Y210621D01*
X198726Y210424D01*
X199060Y210218D01*
X199389Y210004D01*
X199713Y209781D01*
X200031Y209551D01*
X200344Y209314D01*
X200650Y209068D01*
X200951Y208815D01*
X201245Y208555D01*
X201533Y208288D01*
X201814Y208014D01*
X202088Y207733D01*
X202355Y207445D01*
X202615Y207151D01*
X202868Y206850D01*
X203114Y206544D01*
X203351Y206231D01*
X203581Y205913D01*
X203804Y205589D01*
X204018Y205260D01*
X204224Y204926D01*
X204421Y204586D01*
X204611Y204242D01*
X204792Y203894D01*
X204964Y203541D01*
X205127Y203184D01*
X205282Y202823D01*
X205428Y202458D01*
X205565Y202090D01*
X205692Y201719D01*
X205811Y201345D01*
X205920Y200967D01*
X206021Y200588D01*
X206111Y200206D01*
X206193Y199821D01*
X206264Y199435D01*
X206327Y199048D01*
X206380Y198659D01*
X206423Y198268D01*
X206457Y197877D01*
X206481Y197485D01*
X206495Y197093D01*
X206500Y196700D01*
X206495Y196307D01*
X206481Y195915D01*
X206457Y195523D01*
X206423Y195132D01*
X206380Y194741D01*
X206327Y194352D01*
X206264Y193965D01*
X206193Y193579D01*
X206111Y193194D01*
X206021Y192812D01*
X205920Y192433D01*
X205811Y192055D01*
X205692Y191681D01*
X205565Y191310D01*
X205428Y190942D01*
X205282Y190577D01*
X205127Y190216D01*
X204964Y189859D01*
X204792Y189506D01*
X204611Y189158D01*
X204421Y188814D01*
X204224Y188474D01*
X204018Y188140D01*
X203804Y187811D01*
X203581Y187487D01*
X203351Y187169D01*
X203114Y186856D01*
X202868Y186550D01*
X202615Y186249D01*
X202355Y185955D01*
X202088Y185667D01*
X201814Y185386D01*
X201533Y185112D01*
X201245Y184845D01*
X200951Y184585D01*
X200650Y184332D01*
X200344Y184086D01*
X200031Y183849D01*
X199713Y183619D01*
X199389Y183396D01*
X199060Y183182D01*
X198726Y182976D01*
X198386Y182779D01*
X198042Y182589D01*
X197694Y182408D01*
X197341Y182236D01*
X196984Y182073D01*
X196623Y181918D01*
X196258Y181772D01*
X195890Y181635D01*
X195519Y181508D01*
X195145Y181389D01*
X194767Y181280D01*
X194388Y181179D01*
X194006Y181089D01*
X193621Y181007D01*
X193235Y180936D01*
X192848Y180873D01*
X192459Y180820D01*
X192068Y180777D01*
X191677Y180743D01*
X191285Y180719D01*
X190893Y180705D01*
X190500Y180700D01*
X190107Y180705D01*
X189715Y180719D01*
X189323Y180743D01*
X188932Y180777D01*
X188541Y180820D01*
X188152Y180873D01*
X187765Y180936D01*
X187379Y181007D01*
X186994Y181089D01*
X186612Y181179D01*
X186233Y181280D01*
X185855Y181389D01*
X185481Y181508D01*
X185110Y181635D01*
X184742Y181772D01*
X184377Y181918D01*
X184016Y182073D01*
X183659Y182236D01*
X183306Y182408D01*
X182958Y182589D01*
X182614Y182779D01*
X182274Y182976D01*
X181940Y183182D01*
X181611Y183396D01*
X181287Y183619D01*
X180969Y183849D01*
X180656Y184086D01*
X180350Y184332D01*
X180049Y184585D01*
X179755Y184845D01*
X179467Y185112D01*
X179186Y185386D01*
X178912Y185667D01*
X178645Y185955D01*
X178385Y186249D01*
X178132Y186550D01*
X177886Y186856D01*
X177649Y187169D01*
X177419Y187487D01*
X177196Y187811D01*
X176982Y188140D01*
X176776Y188474D01*
X176579Y188814D01*
X176389Y189158D01*
X176208Y189506D01*
X176036Y189859D01*
X175873Y190216D01*
X175718Y190577D01*
X175572Y190942D01*
X175435Y191310D01*
X175308Y191681D01*
X175189Y192055D01*
X175080Y192433D01*
X174979Y192812D01*
X174889Y193194D01*
X174807Y193579D01*
X174736Y193965D01*
X174673Y194352D01*
X174620Y194741D01*
X174577Y195132D01*
X174543Y195523D01*
X174519Y195915D01*
X174505Y196307D01*
X174500Y196700D01*
X174500Y481700D02*
X174505Y482093D01*
X174519Y482485D01*
X174543Y482877D01*
X174577Y483268D01*
X174620Y483659D01*
X174673Y484048D01*
X174736Y484435D01*
X174807Y484821D01*
X174889Y485206D01*
X174979Y485588D01*
X175080Y485967D01*
X175189Y486345D01*
X175308Y486719D01*
X175435Y487090D01*
X175572Y487458D01*
X175718Y487823D01*
X175873Y488184D01*
X176036Y488541D01*
X176208Y488894D01*
X176389Y489242D01*
X176579Y489586D01*
X176776Y489926D01*
X176982Y490260D01*
X177196Y490589D01*
X177419Y490913D01*
X177649Y491231D01*
X177886Y491544D01*
X178132Y491850D01*
X178385Y492151D01*
X178645Y492445D01*
X178912Y492733D01*
X179186Y493014D01*
X179467Y493288D01*
X179755Y493555D01*
X180049Y493815D01*
X180350Y494068D01*
X180656Y494314D01*
X180969Y494551D01*
X181287Y494781D01*
X181611Y495004D01*
X181940Y495218D01*
X182274Y495424D01*
X182614Y495621D01*
X182958Y495811D01*
X183306Y495992D01*
X183659Y496164D01*
X184016Y496327D01*
X184377Y496482D01*
X184742Y496628D01*
X185110Y496765D01*
X185481Y496892D01*
X185855Y497011D01*
X186233Y497120D01*
X186612Y497221D01*
X186994Y497311D01*
X187379Y497393D01*
X187765Y497464D01*
X188152Y497527D01*
X188541Y497580D01*
X188932Y497623D01*
X189323Y497657D01*
X189715Y497681D01*
X190107Y497695D01*
X190500Y497700D01*
X190893Y497695D01*
X191285Y497681D01*
X191677Y497657D01*
X192068Y497623D01*
X192459Y497580D01*
X192848Y497527D01*
X193235Y497464D01*
X193621Y497393D01*
X194006Y497311D01*
X194388Y497221D01*
X194767Y497120D01*
X195145Y497011D01*
X195519Y496892D01*
X195890Y496765D01*
X196258Y496628D01*
X196623Y496482D01*
X196984Y496327D01*
X197341Y496164D01*
X197694Y495992D01*
X198042Y495811D01*
X198386Y495621D01*
X198726Y495424D01*
X199060Y495218D01*
X199389Y495004D01*
X199713Y494781D01*
X200031Y494551D01*
X200344Y494314D01*
X200650Y494068D01*
X200951Y493815D01*
X201245Y493555D01*
X201533Y493288D01*
X201814Y493014D01*
X202088Y492733D01*
X202355Y492445D01*
X202615Y492151D01*
X202868Y491850D01*
X203114Y491544D01*
X203351Y491231D01*
X203581Y490913D01*
X203804Y490589D01*
X204018Y490260D01*
X204224Y489926D01*
X204421Y489586D01*
X204611Y489242D01*
X204792Y488894D01*
X204964Y488541D01*
X205127Y488184D01*
X205282Y487823D01*
X205428Y487458D01*
X205565Y487090D01*
X205692Y486719D01*
X205811Y486345D01*
X205920Y485967D01*
X206021Y485588D01*
X206111Y485206D01*
X206193Y484821D01*
X206264Y484435D01*
X206327Y484048D01*
X206380Y483659D01*
X206423Y483268D01*
X206457Y482877D01*
X206481Y482485D01*
X206495Y482093D01*
X206500Y481700D01*
X206495Y481307D01*
X206481Y480915D01*
X206457Y480523D01*
X206423Y480132D01*
X206380Y479741D01*
X206327Y479352D01*
X206264Y478965D01*
X206193Y478579D01*
X206111Y478194D01*
X206021Y477812D01*
X205920Y477433D01*
X205811Y477055D01*
X205692Y476681D01*
X205565Y476310D01*
X205428Y475942D01*
X205282Y475577D01*
X205127Y475216D01*
X204964Y474859D01*
X204792Y474506D01*
X204611Y474158D01*
X204421Y473814D01*
X204224Y473474D01*
X204018Y473140D01*
X203804Y472811D01*
X203581Y472487D01*
X203351Y472169D01*
X203114Y471856D01*
X202868Y471550D01*
X202615Y471249D01*
X202355Y470955D01*
X202088Y470667D01*
X201814Y470386D01*
X201533Y470112D01*
X201245Y469845D01*
X200951Y469585D01*
X200650Y469332D01*
X200344Y469086D01*
X200031Y468849D01*
X199713Y468619D01*
X199389Y468396D01*
X199060Y468182D01*
X198726Y467976D01*
X198386Y467779D01*
X198042Y467589D01*
X197694Y467408D01*
X197341Y467236D01*
X196984Y467073D01*
X196623Y466918D01*
X196258Y466772D01*
X195890Y466635D01*
X195519Y466508D01*
X195145Y466389D01*
X194767Y466280D01*
X194388Y466179D01*
X194006Y466089D01*
X193621Y466007D01*
X193235Y465936D01*
X192848Y465873D01*
X192459Y465820D01*
X192068Y465777D01*
X191677Y465743D01*
X191285Y465719D01*
X190893Y465705D01*
X190500Y465700D01*
X190107Y465705D01*
X189715Y465719D01*
X189323Y465743D01*
X188932Y465777D01*
X188541Y465820D01*
X188152Y465873D01*
X187765Y465936D01*
X187379Y466007D01*
X186994Y466089D01*
X186612Y466179D01*
X186233Y466280D01*
X185855Y466389D01*
X185481Y466508D01*
X185110Y466635D01*
X184742Y466772D01*
X184377Y466918D01*
X184016Y467073D01*
X183659Y467236D01*
X183306Y467408D01*
X182958Y467589D01*
X182614Y467779D01*
X182274Y467976D01*
X181940Y468182D01*
X181611Y468396D01*
X181287Y468619D01*
X180969Y468849D01*
X180656Y469086D01*
X180350Y469332D01*
X180049Y469585D01*
X179755Y469845D01*
X179467Y470112D01*
X179186Y470386D01*
X178912Y470667D01*
X178645Y470955D01*
X178385Y471249D01*
X178132Y471550D01*
X177886Y471856D01*
X177649Y472169D01*
X177419Y472487D01*
X177196Y472811D01*
X176982Y473140D01*
X176776Y473474D01*
X176579Y473814D01*
X176389Y474158D01*
X176208Y474506D01*
X176036Y474859D01*
X175873Y475216D01*
X175718Y475577D01*
X175572Y475942D01*
X175435Y476310D01*
X175308Y476681D01*
X175189Y477055D01*
X175080Y477433D01*
X174979Y477812D01*
X174889Y478194D01*
X174807Y478579D01*
X174736Y478965D01*
X174673Y479352D01*
X174620Y479741D01*
X174577Y480132D01*
X174543Y480523D01*
X174519Y480915D01*
X174505Y481307D01*
X174500Y481700D01*
X169234Y336700D02*
X169240Y337222D01*
X169260Y337743D01*
X169292Y338264D01*
X169336Y338784D01*
X169394Y339303D01*
X169464Y339820D01*
X169547Y340336D01*
X169643Y340849D01*
X169751Y341359D01*
X169871Y341867D01*
X170004Y342372D01*
X170150Y342873D01*
X170307Y343371D01*
X170477Y343864D01*
X170659Y344354D01*
X170853Y344838D01*
X171058Y345318D01*
X171276Y345792D01*
X171505Y346261D01*
X171745Y346725D01*
X171997Y347182D01*
X172260Y347633D01*
X172533Y348077D01*
X172818Y348515D01*
X173113Y348945D01*
X173419Y349368D01*
X173735Y349784D01*
X174061Y350191D01*
X174397Y350590D01*
X174743Y350981D01*
X175098Y351364D01*
X175463Y351737D01*
X175836Y352102D01*
X176219Y352457D01*
X176610Y352803D01*
X177009Y353139D01*
X177416Y353465D01*
X177832Y353781D01*
X178255Y354087D01*
X178685Y354382D01*
X179123Y354667D01*
X179567Y354940D01*
X180018Y355203D01*
X180475Y355455D01*
X180939Y355695D01*
X181408Y355924D01*
X181882Y356142D01*
X182362Y356347D01*
X182846Y356541D01*
X183336Y356723D01*
X183829Y356893D01*
X184327Y357050D01*
X184828Y357196D01*
X185333Y357329D01*
X185841Y357449D01*
X186351Y357557D01*
X186864Y357653D01*
X187380Y357736D01*
X187897Y357806D01*
X188416Y357864D01*
X188936Y357908D01*
X189457Y357940D01*
X189978Y357960D01*
X190500Y357966D01*
X191022Y357960D01*
X191543Y357940D01*
X192064Y357908D01*
X192584Y357864D01*
X193103Y357806D01*
X193620Y357736D01*
X194136Y357653D01*
X194649Y357557D01*
X195159Y357449D01*
X195667Y357329D01*
X196172Y357196D01*
X196673Y357050D01*
X197171Y356893D01*
X197664Y356723D01*
X198154Y356541D01*
X198638Y356347D01*
X199118Y356142D01*
X199592Y355924D01*
X200061Y355695D01*
X200525Y355455D01*
X200982Y355203D01*
X201433Y354940D01*
X201877Y354667D01*
X202315Y354382D01*
X202745Y354087D01*
X203168Y353781D01*
X203584Y353465D01*
X203991Y353139D01*
X204390Y352803D01*
X204781Y352457D01*
X205164Y352102D01*
X205537Y351737D01*
X205902Y351364D01*
X206257Y350981D01*
X206603Y350590D01*
X206939Y350191D01*
X207265Y349784D01*
X207581Y349368D01*
X207887Y348945D01*
X208182Y348515D01*
X208467Y348077D01*
X208740Y347633D01*
X209003Y347182D01*
X209255Y346725D01*
X209495Y346261D01*
X209724Y345792D01*
X209942Y345318D01*
X210147Y344838D01*
X210341Y344354D01*
X210523Y343864D01*
X210693Y343371D01*
X210850Y342873D01*
X210996Y342372D01*
X211129Y341867D01*
X211249Y341359D01*
X211357Y340849D01*
X211453Y340336D01*
X211536Y339820D01*
X211606Y339303D01*
X211664Y338784D01*
X211708Y338264D01*
X211740Y337743D01*
X211760Y337222D01*
X211766Y336700D01*
X211760Y336178D01*
X211740Y335657D01*
X211708Y335136D01*
X211664Y334616D01*
X211606Y334097D01*
X211536Y333580D01*
X211453Y333064D01*
X211357Y332551D01*
X211249Y332041D01*
X211129Y331533D01*
X210996Y331028D01*
X210850Y330527D01*
X210693Y330029D01*
X210523Y329536D01*
X210341Y329046D01*
X210147Y328562D01*
X209942Y328082D01*
X209724Y327608D01*
X209495Y327139D01*
X209255Y326675D01*
X209003Y326218D01*
X208740Y325767D01*
X208467Y325323D01*
X208182Y324885D01*
X207887Y324455D01*
X207581Y324032D01*
X207265Y323616D01*
X206939Y323209D01*
X206603Y322810D01*
X206257Y322419D01*
X205902Y322036D01*
X205537Y321663D01*
X205164Y321298D01*
X204781Y320943D01*
X204390Y320597D01*
X203991Y320261D01*
X203584Y319935D01*
X203168Y319619D01*
X202745Y319313D01*
X202315Y319018D01*
X201877Y318733D01*
X201433Y318460D01*
X200982Y318197D01*
X200525Y317945D01*
X200061Y317705D01*
X199592Y317476D01*
X199118Y317258D01*
X198638Y317053D01*
X198154Y316859D01*
X197664Y316677D01*
X197171Y316507D01*
X196673Y316350D01*
X196172Y316204D01*
X195667Y316071D01*
X195159Y315951D01*
X194649Y315843D01*
X194136Y315747D01*
X193620Y315664D01*
X193103Y315594D01*
X192584Y315536D01*
X192064Y315492D01*
X191543Y315460D01*
X191022Y315440D01*
X190500Y315434D01*
X189978Y315440D01*
X189457Y315460D01*
X188936Y315492D01*
X188416Y315536D01*
X187897Y315594D01*
X187380Y315664D01*
X186864Y315747D01*
X186351Y315843D01*
X185841Y315951D01*
X185333Y316071D01*
X184828Y316204D01*
X184327Y316350D01*
X183829Y316507D01*
X183336Y316677D01*
X182846Y316859D01*
X182362Y317053D01*
X181882Y317258D01*
X181408Y317476D01*
X180939Y317705D01*
X180475Y317945D01*
X180018Y318197D01*
X179567Y318460D01*
X179123Y318733D01*
X178685Y319018D01*
X178255Y319313D01*
X177832Y319619D01*
X177416Y319935D01*
X177009Y320261D01*
X176610Y320597D01*
X176219Y320943D01*
X175836Y321298D01*
X175463Y321663D01*
X175098Y322036D01*
X174743Y322419D01*
X174397Y322810D01*
X174061Y323209D01*
X173735Y323616D01*
X173419Y324032D01*
X173113Y324455D01*
X172818Y324885D01*
X172533Y325323D01*
X172260Y325767D01*
X171997Y326218D01*
X171745Y326675D01*
X171505Y327139D01*
X171276Y327608D01*
X171058Y328082D01*
X170853Y328562D01*
X170659Y329046D01*
X170477Y329536D01*
X170307Y330029D01*
X170150Y330527D01*
X170004Y331028D01*
X169871Y331533D01*
X169751Y332041D01*
X169643Y332551D01*
X169547Y333064D01*
X169464Y333580D01*
X169394Y334097D01*
X169336Y334616D01*
X169292Y335136D01*
X169260Y335657D01*
X169240Y336178D01*
X169234Y336700D01*
D14*
X241808Y25908D02*
X250246Y25908D01*
X250359Y25910D01*
X250472Y25916D01*
X250585Y25926D01*
X250698Y25940D01*
X250810Y25957D01*
X250921Y25979D01*
X251031Y26004D01*
X251141Y26034D01*
X251249Y26067D01*
X251356Y26104D01*
X251462Y26144D01*
X251566Y26189D01*
X251669Y26237D01*
X251770Y26288D01*
X251869Y26343D01*
X251966Y26401D01*
X252061Y26463D01*
X252154Y26528D01*
X252244Y26596D01*
X252332Y26667D01*
X252418Y26742D01*
X252501Y26819D01*
X252581Y26899D01*
X252658Y26982D01*
X252733Y27068D01*
X252804Y27156D01*
X252872Y27246D01*
X252937Y27339D01*
X252999Y27434D01*
X253057Y27531D01*
X253112Y27630D01*
X253163Y27731D01*
X253211Y27834D01*
X253256Y27938D01*
X253296Y28044D01*
X253333Y28151D01*
X253366Y28259D01*
X253396Y28369D01*
X253421Y28479D01*
X253443Y28590D01*
X253460Y28702D01*
X253474Y28815D01*
X253484Y28928D01*
X253490Y29041D01*
X253492Y29154D01*
X253490Y29267D01*
X253484Y29380D01*
X253474Y29493D01*
X253460Y29606D01*
X253443Y29718D01*
X253421Y29829D01*
X253396Y29939D01*
X253366Y30049D01*
X253333Y30157D01*
X253296Y30264D01*
X253256Y30370D01*
X253211Y30474D01*
X253163Y30577D01*
X253112Y30678D01*
X253057Y30777D01*
X252999Y30874D01*
X252937Y30969D01*
X252872Y31062D01*
X252804Y31152D01*
X252733Y31240D01*
X252658Y31326D01*
X252581Y31409D01*
X252501Y31489D01*
X252418Y31566D01*
X252332Y31641D01*
X252244Y31712D01*
X252154Y31780D01*
X252061Y31845D01*
X251966Y31907D01*
X251869Y31965D01*
X251770Y32020D01*
X251669Y32071D01*
X251566Y32119D01*
X251462Y32164D01*
X251356Y32204D01*
X251249Y32241D01*
X251141Y32274D01*
X251031Y32304D01*
X250921Y32329D01*
X250810Y32351D01*
X250698Y32368D01*
X250585Y32382D01*
X250472Y32392D01*
X250359Y32398D01*
X250246Y32400D01*
X250246Y32399D02*
X241808Y32399D01*
X244404Y37719D02*
X241808Y40965D01*
X253492Y40965D01*
X253492Y44210D02*
X253492Y37719D01*
D13*
X317500Y241300D02*
X317500Y546100D01*
X317500Y241300D02*
X571500Y241300D01*
X571500Y546100D02*
X317500Y546100D01*
X571500Y546100D02*
X571500Y241300D01*
D14*
X584708Y241808D02*
X593146Y241808D01*
X593259Y241810D01*
X593372Y241816D01*
X593485Y241826D01*
X593598Y241840D01*
X593710Y241857D01*
X593821Y241879D01*
X593931Y241904D01*
X594041Y241934D01*
X594149Y241967D01*
X594256Y242004D01*
X594362Y242044D01*
X594466Y242089D01*
X594569Y242137D01*
X594670Y242188D01*
X594769Y242243D01*
X594866Y242301D01*
X594961Y242363D01*
X595054Y242428D01*
X595144Y242496D01*
X595232Y242567D01*
X595318Y242642D01*
X595401Y242719D01*
X595481Y242799D01*
X595558Y242882D01*
X595633Y242968D01*
X595704Y243056D01*
X595772Y243146D01*
X595837Y243239D01*
X595899Y243334D01*
X595957Y243431D01*
X596012Y243530D01*
X596063Y243631D01*
X596111Y243734D01*
X596156Y243838D01*
X596196Y243944D01*
X596233Y244051D01*
X596266Y244159D01*
X596296Y244269D01*
X596321Y244379D01*
X596343Y244490D01*
X596360Y244602D01*
X596374Y244715D01*
X596384Y244828D01*
X596390Y244941D01*
X596392Y245054D01*
X596390Y245167D01*
X596384Y245280D01*
X596374Y245393D01*
X596360Y245506D01*
X596343Y245618D01*
X596321Y245729D01*
X596296Y245839D01*
X596266Y245949D01*
X596233Y246057D01*
X596196Y246164D01*
X596156Y246270D01*
X596111Y246374D01*
X596063Y246477D01*
X596012Y246578D01*
X595957Y246677D01*
X595899Y246774D01*
X595837Y246869D01*
X595772Y246962D01*
X595704Y247052D01*
X595633Y247140D01*
X595558Y247226D01*
X595481Y247309D01*
X595401Y247389D01*
X595318Y247466D01*
X595232Y247541D01*
X595144Y247612D01*
X595054Y247680D01*
X594961Y247745D01*
X594866Y247807D01*
X594769Y247865D01*
X594670Y247920D01*
X594569Y247971D01*
X594466Y248019D01*
X594362Y248064D01*
X594256Y248104D01*
X594149Y248141D01*
X594041Y248174D01*
X593931Y248204D01*
X593821Y248229D01*
X593710Y248251D01*
X593598Y248268D01*
X593485Y248282D01*
X593372Y248292D01*
X593259Y248298D01*
X593146Y248300D01*
X593146Y248299D02*
X584708Y248299D01*
X584708Y257189D02*
X584710Y257296D01*
X584716Y257402D01*
X584726Y257508D01*
X584739Y257614D01*
X584757Y257720D01*
X584778Y257824D01*
X584803Y257928D01*
X584832Y258031D01*
X584864Y258132D01*
X584901Y258232D01*
X584941Y258331D01*
X584984Y258429D01*
X585031Y258525D01*
X585082Y258619D01*
X585136Y258711D01*
X585193Y258801D01*
X585253Y258889D01*
X585317Y258974D01*
X585384Y259057D01*
X585454Y259138D01*
X585526Y259216D01*
X585602Y259292D01*
X585680Y259364D01*
X585761Y259434D01*
X585844Y259501D01*
X585929Y259565D01*
X586017Y259625D01*
X586107Y259682D01*
X586199Y259736D01*
X586293Y259787D01*
X586389Y259834D01*
X586487Y259877D01*
X586586Y259917D01*
X586686Y259954D01*
X586787Y259986D01*
X586890Y260015D01*
X586994Y260040D01*
X587098Y260061D01*
X587204Y260079D01*
X587310Y260092D01*
X587416Y260102D01*
X587522Y260108D01*
X587629Y260110D01*
X584708Y257189D02*
X584710Y257068D01*
X584716Y256947D01*
X584726Y256827D01*
X584739Y256706D01*
X584757Y256587D01*
X584778Y256467D01*
X584803Y256349D01*
X584832Y256232D01*
X584865Y256115D01*
X584901Y256000D01*
X584942Y255886D01*
X584985Y255773D01*
X585033Y255661D01*
X585084Y255552D01*
X585139Y255444D01*
X585197Y255337D01*
X585258Y255233D01*
X585323Y255131D01*
X585391Y255031D01*
X585462Y254933D01*
X585536Y254837D01*
X585613Y254744D01*
X585694Y254654D01*
X585777Y254566D01*
X585863Y254481D01*
X585952Y254398D01*
X586043Y254319D01*
X586137Y254242D01*
X586233Y254169D01*
X586331Y254099D01*
X586432Y254032D01*
X586535Y253968D01*
X586640Y253908D01*
X586747Y253850D01*
X586855Y253797D01*
X586965Y253747D01*
X587077Y253701D01*
X587190Y253658D01*
X587305Y253619D01*
X589901Y259136D02*
X589823Y259215D01*
X589743Y259291D01*
X589660Y259364D01*
X589574Y259434D01*
X589487Y259501D01*
X589396Y259565D01*
X589304Y259625D01*
X589210Y259683D01*
X589113Y259737D01*
X589015Y259787D01*
X588915Y259834D01*
X588814Y259878D01*
X588711Y259918D01*
X588606Y259954D01*
X588501Y259986D01*
X588394Y260015D01*
X588287Y260040D01*
X588178Y260062D01*
X588069Y260079D01*
X587960Y260093D01*
X587850Y260102D01*
X587739Y260108D01*
X587629Y260110D01*
X589901Y259136D02*
X596392Y253619D01*
X596392Y260110D01*
D13*
X469900Y723900D02*
X317500Y723900D01*
X469900Y723900D02*
X469900Y571500D01*
X317500Y571500D01*
X317500Y723900D01*
D14*
X318008Y558292D02*
X318008Y549854D01*
X318010Y549741D01*
X318016Y549628D01*
X318026Y549515D01*
X318040Y549402D01*
X318057Y549290D01*
X318079Y549179D01*
X318104Y549069D01*
X318134Y548959D01*
X318167Y548851D01*
X318204Y548744D01*
X318244Y548638D01*
X318289Y548534D01*
X318337Y548431D01*
X318388Y548330D01*
X318443Y548231D01*
X318501Y548134D01*
X318563Y548039D01*
X318628Y547946D01*
X318696Y547856D01*
X318767Y547768D01*
X318842Y547682D01*
X318919Y547599D01*
X318999Y547519D01*
X319082Y547442D01*
X319168Y547367D01*
X319256Y547296D01*
X319346Y547228D01*
X319439Y547163D01*
X319534Y547101D01*
X319631Y547043D01*
X319730Y546988D01*
X319831Y546937D01*
X319934Y546889D01*
X320038Y546844D01*
X320144Y546804D01*
X320251Y546767D01*
X320359Y546734D01*
X320469Y546704D01*
X320579Y546679D01*
X320690Y546657D01*
X320802Y546640D01*
X320915Y546626D01*
X321028Y546616D01*
X321141Y546610D01*
X321254Y546608D01*
X321367Y546610D01*
X321480Y546616D01*
X321593Y546626D01*
X321706Y546640D01*
X321818Y546657D01*
X321929Y546679D01*
X322039Y546704D01*
X322149Y546734D01*
X322257Y546767D01*
X322364Y546804D01*
X322470Y546844D01*
X322574Y546889D01*
X322677Y546937D01*
X322778Y546988D01*
X322877Y547043D01*
X322974Y547101D01*
X323069Y547163D01*
X323162Y547228D01*
X323252Y547296D01*
X323340Y547367D01*
X323426Y547442D01*
X323509Y547519D01*
X323589Y547599D01*
X323666Y547682D01*
X323741Y547768D01*
X323812Y547856D01*
X323880Y547946D01*
X323945Y548039D01*
X324007Y548134D01*
X324065Y548231D01*
X324120Y548330D01*
X324171Y548431D01*
X324219Y548534D01*
X324264Y548638D01*
X324304Y548744D01*
X324341Y548851D01*
X324374Y548959D01*
X324404Y549069D01*
X324429Y549179D01*
X324451Y549290D01*
X324468Y549402D01*
X324482Y549515D01*
X324492Y549628D01*
X324498Y549741D01*
X324500Y549854D01*
X324499Y549854D02*
X324499Y558292D01*
X329819Y546608D02*
X333065Y546608D01*
X333178Y546610D01*
X333291Y546616D01*
X333404Y546626D01*
X333517Y546640D01*
X333629Y546657D01*
X333740Y546679D01*
X333850Y546704D01*
X333960Y546734D01*
X334068Y546767D01*
X334175Y546804D01*
X334281Y546844D01*
X334385Y546889D01*
X334488Y546937D01*
X334589Y546988D01*
X334688Y547043D01*
X334785Y547101D01*
X334880Y547163D01*
X334973Y547228D01*
X335063Y547296D01*
X335151Y547367D01*
X335237Y547442D01*
X335320Y547519D01*
X335400Y547599D01*
X335477Y547682D01*
X335552Y547768D01*
X335623Y547856D01*
X335691Y547946D01*
X335756Y548039D01*
X335818Y548134D01*
X335876Y548231D01*
X335931Y548330D01*
X335982Y548431D01*
X336030Y548534D01*
X336075Y548638D01*
X336115Y548744D01*
X336152Y548851D01*
X336185Y548959D01*
X336215Y549069D01*
X336240Y549179D01*
X336262Y549290D01*
X336279Y549402D01*
X336293Y549515D01*
X336303Y549628D01*
X336309Y549741D01*
X336311Y549854D01*
X336309Y549967D01*
X336303Y550080D01*
X336293Y550193D01*
X336279Y550306D01*
X336262Y550418D01*
X336240Y550529D01*
X336215Y550639D01*
X336185Y550749D01*
X336152Y550857D01*
X336115Y550964D01*
X336075Y551070D01*
X336030Y551174D01*
X335982Y551277D01*
X335931Y551378D01*
X335876Y551477D01*
X335818Y551574D01*
X335756Y551669D01*
X335691Y551762D01*
X335623Y551852D01*
X335552Y551940D01*
X335477Y552026D01*
X335400Y552109D01*
X335320Y552189D01*
X335237Y552266D01*
X335151Y552341D01*
X335063Y552412D01*
X334973Y552480D01*
X334880Y552545D01*
X334785Y552607D01*
X334688Y552665D01*
X334589Y552720D01*
X334488Y552771D01*
X334385Y552819D01*
X334281Y552864D01*
X334175Y552904D01*
X334068Y552941D01*
X333960Y552974D01*
X333850Y553004D01*
X333740Y553029D01*
X333629Y553051D01*
X333517Y553068D01*
X333404Y553082D01*
X333291Y553092D01*
X333178Y553098D01*
X333065Y553100D01*
X333714Y558292D02*
X329819Y558292D01*
X333714Y558292D02*
X333815Y558290D01*
X333915Y558284D01*
X334015Y558274D01*
X334115Y558261D01*
X334214Y558243D01*
X334313Y558222D01*
X334410Y558197D01*
X334507Y558168D01*
X334602Y558135D01*
X334696Y558099D01*
X334788Y558059D01*
X334879Y558016D01*
X334968Y557969D01*
X335055Y557919D01*
X335141Y557865D01*
X335224Y557808D01*
X335304Y557748D01*
X335383Y557685D01*
X335459Y557618D01*
X335532Y557549D01*
X335602Y557477D01*
X335670Y557403D01*
X335735Y557326D01*
X335796Y557246D01*
X335855Y557164D01*
X335910Y557080D01*
X335962Y556994D01*
X336011Y556906D01*
X336056Y556816D01*
X336098Y556724D01*
X336136Y556631D01*
X336170Y556536D01*
X336201Y556441D01*
X336228Y556344D01*
X336251Y556246D01*
X336271Y556147D01*
X336286Y556047D01*
X336298Y555947D01*
X336306Y555847D01*
X336310Y555746D01*
X336310Y555646D01*
X336306Y555545D01*
X336298Y555445D01*
X336286Y555345D01*
X336271Y555245D01*
X336251Y555146D01*
X336228Y555048D01*
X336201Y554951D01*
X336170Y554856D01*
X336136Y554761D01*
X336098Y554668D01*
X336056Y554576D01*
X336011Y554486D01*
X335962Y554398D01*
X335910Y554312D01*
X335855Y554228D01*
X335796Y554146D01*
X335735Y554066D01*
X335670Y553989D01*
X335602Y553915D01*
X335532Y553843D01*
X335459Y553774D01*
X335383Y553707D01*
X335304Y553644D01*
X335224Y553584D01*
X335141Y553527D01*
X335055Y553473D01*
X334968Y553423D01*
X334879Y553376D01*
X334788Y553333D01*
X334696Y553293D01*
X334602Y553257D01*
X334507Y553224D01*
X334410Y553195D01*
X334313Y553170D01*
X334214Y553149D01*
X334115Y553131D01*
X334015Y553118D01*
X333915Y553108D01*
X333815Y553102D01*
X333714Y553100D01*
X333714Y553099D02*
X331117Y553099D01*
M02*
