G04 EAGLE Gerber RS-274X export*
G75*
%MOMM*%
%FSLAX34Y34*%
%LPD*%
%INSoldermask Top*%
%IPPOS*%
%AMOC8*
5,1,8,0,0,1.08239X$1,22.5*%
G01*
%ADD10C,3.703200*%
%ADD11C,1.879600*%
%ADD12C,2.153200*%
%ADD13C,1.511200*%
%ADD14C,2.003200*%
%ADD15C,1.511200*%


D10*
X38100Y800100D03*
X38100Y38100D03*
X647700Y38100D03*
X647700Y800100D03*
D11*
X330200Y25400D03*
X330200Y127000D03*
D12*
X482600Y76200D03*
X520700Y76200D03*
X381000Y76200D03*
X419100Y76200D03*
D13*
X552260Y203200D02*
X565340Y203200D01*
X565340Y177800D02*
X552260Y177800D01*
X552260Y152400D02*
X565340Y152400D01*
D14*
X101600Y279400D03*
X101600Y254000D03*
X101600Y228600D03*
X101600Y203200D03*
X101600Y177800D03*
X101600Y152400D03*
X101600Y127000D03*
X101600Y101600D03*
X101600Y76200D03*
X101600Y50800D03*
X101600Y25400D03*
X279400Y25400D03*
X279400Y50800D03*
X279400Y76200D03*
X279400Y101600D03*
X279400Y127000D03*
X279400Y152400D03*
X279400Y177800D03*
X279400Y203200D03*
X279400Y228600D03*
X279400Y254000D03*
X279400Y279400D03*
X279400Y304800D03*
X279400Y330200D03*
X279400Y355600D03*
X279400Y381000D03*
X279400Y406400D03*
X101600Y304800D03*
X101600Y330200D03*
X101600Y355600D03*
X101600Y381000D03*
X101600Y406400D03*
X101600Y431800D03*
X101600Y457200D03*
X101600Y482600D03*
X101600Y508000D03*
X279400Y431800D03*
X279400Y457200D03*
X279400Y482600D03*
X279400Y508000D03*
D15*
X330200Y304800D03*
X330200Y330200D03*
X330200Y355600D03*
X330200Y381000D03*
X330200Y406400D03*
X330200Y431800D03*
X330200Y457200D03*
X330200Y482600D03*
X381000Y330200D03*
X381000Y355600D03*
X381000Y381000D03*
X381000Y406400D03*
X381000Y431800D03*
X381000Y457200D03*
X558800Y304800D03*
X558800Y330200D03*
X558800Y355600D03*
X558800Y381000D03*
X558800Y406400D03*
X558800Y431800D03*
X558800Y457200D03*
X558800Y482600D03*
X330200Y711200D03*
X355600Y711200D03*
X381000Y711200D03*
X406400Y711200D03*
X431800Y711200D03*
X457200Y711200D03*
X330200Y584200D03*
X355600Y584200D03*
X381000Y584200D03*
X406400Y584200D03*
X431800Y584200D03*
X457200Y584200D03*
M02*
